if (_typeface_js && _typeface_js.loadFace) _typeface_js.loadFace({"glyphs":{"S":{"x_min":38.890625,"x_max":502.78125,"ha":542,"o":"m 297 940 b 48 723 118 940 48 831 b 109 563 48 672 63 622 b 212 458 136 530 172 497 b 283 386 237 433 262 409 b 372 222 350 323 372 281 b 231 83 372 133 315 83 b 65 138 165 83 104 105 b 38 58 51 116 38 81 b 55 27 38 47 43 38 b 236 -20 81 4 144 -20 b 502 231 409 -20 502 80 b 420 430 502 313 477 372 b 336 512 395 458 368 483 b 229 618 295 550 259 583 b 177 712 201 650 183 679 b 177 731 177 719 177 725 b 309 844 177 805 229 844 b 418 820 352 844 391 833 b 443 813 427 816 436 813 b 458 818 448 813 454 815 b 479 884 472 840 479 863 b 297 940 466 904 408 940 "},"/":{"x_min":33.328125,"x_max":452.78125,"ha":486,"o":"m 452 975 b 369 972 415 976 388 975 b 333 940 343 969 338 959 b 33 -79 233 600 133 259 b 133 -63 101 -79 116 -77 b 183 47 152 -45 169 0 b 452 975 273 356 362 666 "},"y":{"x_min":13.890625,"x_max":516.671875,"ha":543,"o":"m 136 659 b 29 627 63 659 38 651 b 197 104 87 466 184 145 b 225 40 206 75 212 58 b 231 33 226 37 229 36 b 131 -180 212 -48 169 -161 b 22 -193 88 -198 52 -183 b 13 -230 22 -193 13 -218 b 119 -276 20 -254 54 -276 b 327 -20 180 -276 251 -216 b 509 586 402 187 472 431 b 516 623 513 600 516 612 b 509 652 516 634 513 644 b 448 655 481 654 462 655 b 406 643 426 655 418 652 b 336 341 387 556 359 447 b 288 150 316 256 295 169 b 243 334 284 162 265 250 b 163 604 216 431 177 559 b 136 659 158 626 144 659 "},"Ž":{"x_min":33.328125,"x_max":620.359375,"ha":649,"o":"m 316 1006 b 356 1022 326 1006 350 1011 b 495 1169 400 1065 469 1138 b 443 1211 490 1184 468 1204 b 436 1209 443 1211 440 1211 b 425 1202 431 1208 426 1204 b 330 1109 401 1184 365 1151 b 237 1200 311 1127 266 1176 b 206 1212 227 1208 216 1212 b 152 1158 187 1212 161 1181 b 316 1006 191 1120 279 1033 m 62 841 b 62 838 62 840 62 838 b 133 822 62 827 80 822 l 454 822 b 34 65 352 619 184 315 b 33 48 34 59 33 54 b 34 30 33 43 34 37 b 50 1 37 15 47 4 b 395 -4 119 -1 226 -4 b 570 0 500 -4 540 -2 b 619 55 591 2 609 30 b 618 100 620 70 620 86 b 505 93 604 98 562 93 b 191 97 398 93 272 94 b 579 822 338 355 505 661 b 595 888 590 845 595 868 b 594 915 595 900 594 908 b 594 919 594 916 594 918 l 180 919 b 95 925 144 919 118 922 b 73 901 80 922 76 906 b 62 841 69 883 66 863 "},"Á":{"x_min":13.890625,"x_max":722.21875,"ha":739,"o":"m 584 18 b 638 -5 606 -1 622 -5 b 716 4 662 -5 700 -1 b 722 13 719 6 722 9 b 720 18 722 13 720 16 b 631 283 697 88 670 173 b 423 911 573 459 486 722 b 397 925 418 918 408 922 b 359 922 388 925 375 925 b 330 916 350 922 338 918 b 316 887 323 916 320 905 b 25 52 254 688 102 284 b 13 4 19 37 15 22 b 97 -5 38 -1 77 -5 b 140 13 127 -5 136 1 b 222 254 161 76 190 162 l 511 254 b 584 18 543 159 559 94 m 283 450 b 369 737 322 566 345 650 b 427 533 381 688 398 625 b 481 352 445 477 462 416 l 252 352 l 283 450 m 322 994 b 533 1098 369 1015 466 1068 b 552 1120 544 1104 552 1111 b 498 1198 547 1148 525 1194 b 312 1077 475 1198 370 1129 b 287 1050 301 1068 294 1058 b 322 994 287 1041 304 1000 "},"g":{"x_min":15.046875,"x_max":575,"ha":585,"o":"m 511 431 b 473 556 511 481 498 520 b 537 552 497 554 513 552 b 575 608 562 552 575 576 b 566 650 575 626 570 641 b 423 643 530 648 476 644 b 402 643 412 634 408 640 b 291 669 379 655 338 669 b 55 426 155 669 55 581 b 147 234 55 338 88 270 b 63 155 123 212 90 181 b 48 126 54 144 48 134 b 144 31 50 86 83 51 b 250 12 144 31 188 18 l 275 11 b 370 4 308 9 340 8 b 454 -59 429 -2 441 -26 b 456 -81 455 -63 456 -76 b 281 -259 458 -141 381 -234 b 136 -252 236 -270 144 -288 b 227 -133 127 -225 180 -175 b 220 -58 251 -112 248 -73 b 16 -298 134 -115 -1 -229 b 280 -341 34 -370 190 -361 b 572 -43 452 -305 572 -166 b 430 98 568 37 516 84 b 381 104 416 101 400 102 b 259 113 340 106 298 111 b 175 151 204 119 175 134 b 184 175 175 158 177 166 b 218 208 194 186 205 195 b 283 201 238 204 256 201 b 511 431 425 201 511 286 m 275 588 b 395 445 347 588 387 536 b 300 283 404 348 375 283 b 176 433 222 283 184 341 b 275 588 166 537 211 588 "},"–":{"x_min":22.21875,"x_max":618.671875,"ha":678,"o":"m 555 297 b 618 395 593 297 612 320 b 618 443 618 397 619 419 l 87 443 b 22 350 51 443 23 418 b 23 297 22 345 22 319 l 555 297 "},"ë":{"x_min":44.4375,"x_max":515.28125,"ha":550,"o":"m 330 84 b 166 286 233 84 168 133 b 229 284 188 284 206 284 b 409 293 294 284 366 287 b 506 325 447 298 493 313 b 515 406 512 347 515 377 b 512 473 515 430 513 452 b 311 669 500 593 436 669 l 311 669 b 44 301 158 669 44 569 b 118 48 44 186 69 98 b 306 -18 172 -5 241 -18 b 412 -4 350 -18 391 -9 b 493 62 451 5 491 34 b 484 118 491 79 488 105 b 330 84 440 94 388 84 m 297 579 b 397 461 359 579 390 538 b 398 430 397 451 398 441 b 391 384 398 412 395 395 b 359 376 383 379 372 377 b 222 372 333 373 276 372 l 169 372 b 284 577 176 506 229 569 b 297 579 288 579 293 579 m 119 861 b 180 786 119 809 136 786 b 248 863 233 786 247 818 b 188 933 250 909 240 933 b 119 861 141 933 119 908 m 337 861 b 398 786 337 809 354 786 b 466 863 451 786 465 818 b 406 933 468 909 458 933 b 337 861 359 933 337 908 "},"ƒ":{"x_min":-61.109375,"x_max":462.65625,"ha":372,"o":"m 226 27 b 227 558 226 176 227 401 b 337 561 270 558 308 558 b 352 566 344 562 350 565 b 383 652 372 573 379 587 b 304 651 365 651 334 651 l 229 651 b 230 741 229 681 229 712 b 355 888 236 861 293 888 b 411 883 373 888 397 887 b 438 877 422 880 434 876 b 455 905 445 884 450 893 b 462 936 459 915 461 925 b 458 958 462 943 463 951 b 354 984 445 972 411 984 b 113 755 256 984 129 940 b 108 651 109 723 108 688 b 54 638 87 647 70 643 b 22 575 31 633 27 626 b 108 558 37 563 63 559 b 109 200 108 433 109 313 b 106 22 109 143 111 77 b 37 -109 101 -55 93 -109 b -58 -81 16 -111 -47 -91 l -58 -81 b -61 -112 -59 -90 -61 -101 b -59 -151 -61 -125 -61 -138 b -38 -179 -56 -162 -50 -170 b 73 -205 -12 -195 30 -205 b 226 27 202 -205 226 -84 "},"Î":{"x_min":-22.21875,"x_max":320.828125,"ha":288,"o":"m 94 -4 b 206 12 162 -4 195 -1 b 205 143 206 26 205 66 b 204 463 205 231 204 344 b 205 830 204 586 205 720 b 193 922 205 894 204 922 b 79 890 125 922 90 918 b 81 756 80 877 81 831 b 83 461 81 673 83 566 b 81 22 83 291 81 126 b 94 -4 81 2 86 -4 m 156 1205 b 116 1190 147 1205 123 1201 b -22 1043 73 1147 4 1073 b 30 1001 -16 1027 5 1008 b 37 1002 30 1001 33 1001 b 48 1009 41 1004 47 1008 b 143 1102 72 1027 108 1061 b 236 1012 162 1084 206 1036 b 266 1000 245 1004 256 1000 b 320 1054 286 1000 312 1030 b 156 1205 281 1091 194 1179 "},"e":{"x_min":44.4375,"x_max":515.28125,"ha":553,"o":"m 330 84 b 166 286 233 84 168 133 b 229 284 188 284 206 284 b 409 293 294 284 366 287 b 506 325 447 298 493 313 b 515 406 512 347 515 377 b 512 473 515 430 513 452 b 311 669 500 593 436 669 l 311 669 b 44 301 158 669 44 569 b 118 48 44 186 69 98 b 306 -18 172 -5 241 -18 b 412 -4 350 -18 391 -9 b 493 62 451 5 491 34 b 484 118 491 79 488 105 b 330 84 440 94 388 84 m 297 579 b 397 461 359 579 390 538 b 398 430 397 451 398 441 b 391 384 398 412 395 395 b 359 376 383 379 372 377 b 222 372 333 373 276 372 l 169 372 b 284 577 176 506 229 569 b 297 579 288 579 293 579 "},"Ã":{"x_min":13.890625,"x_max":722.21875,"ha":739,"o":"m 584 18 b 638 -5 606 -1 622 -5 b 716 4 662 -5 700 -1 b 722 13 719 6 722 9 b 720 18 722 13 720 16 b 631 283 697 88 670 173 b 423 911 573 459 486 722 b 397 925 418 918 408 922 b 359 922 388 925 375 925 b 330 916 350 922 338 918 b 316 887 323 916 320 905 b 25 52 254 688 102 284 b 13 4 19 37 15 22 b 97 -5 38 -1 77 -5 b 140 13 127 -5 136 1 b 222 254 161 76 190 162 l 511 254 b 584 18 543 159 559 94 m 283 450 b 369 737 322 566 345 650 b 427 533 381 688 398 625 b 481 352 445 477 462 416 l 252 352 l 283 450 m 304 1083 b 340 1063 318 1083 326 1077 b 427 1006 366 1037 381 1006 b 554 1131 498 1006 545 1075 b 506 1173 550 1138 525 1173 b 490 1159 498 1173 494 1169 b 437 1105 480 1126 466 1105 b 401 1127 425 1105 413 1115 b 316 1180 375 1152 355 1180 b 180 1050 248 1180 208 1131 b 237 1015 184 1045 213 1015 b 252 1030 244 1015 248 1022 b 304 1083 265 1059 283 1079 "},"J":{"x_min":-11.109375,"x_max":301.390625,"ha":383,"o":"m 38 1 b 0 5 26 1 12 2 b -11 -36 -4 -2 -9 -13 b 34 -88 -6 -58 8 -81 b 86 -95 48 -93 65 -95 b 127 -93 98 -95 112 -95 b 208 -62 159 -88 186 -77 b 301 262 291 -6 301 95 l 301 838 b 290 922 301 886 300 905 b 175 890 220 922 188 918 b 177 711 176 847 177 787 l 177 243 b 38 1 187 -2 91 2 "},"»":{"x_min":55.5625,"x_max":580.5625,"ha":626,"o":"m 580 322 b 568 362 580 331 576 347 b 376 640 506 445 402 594 b 318 586 365 638 318 616 b 462 329 318 537 450 348 b 311 76 450 312 311 119 b 368 16 311 43 359 19 b 580 322 400 66 541 262 m 329 320 b 315 359 329 331 323 345 b 119 636 252 443 148 584 b 62 577 108 631 62 609 b 211 327 62 533 201 345 b 55 86 197 311 55 131 b 109 22 55 48 102 26 b 329 320 144 76 287 258 "},"∆":{"x_min":47.328125,"x_max":772.84375,"ha":796,"o":"m 758 0 b 772 19 768 0 775 9 b 473 929 681 315 577 631 l 395 936 b 304 870 354 936 318 909 b 51 118 212 619 126 363 b 140 0 33 59 77 0 l 758 0 m 393 833 b 409 747 393 812 405 758 l 609 104 b 602 94 611 98 608 94 l 233 94 b 190 152 202 94 180 123 l 377 747 b 393 833 381 758 393 809 "},"©":{"x_min":50,"x_max":751.390625,"ha":803,"o":"m 50 594 b 401 223 50 351 190 223 b 751 595 609 223 751 366 b 406 965 751 837 615 965 b 50 594 195 965 50 829 m 131 594 b 131 598 131 595 131 597 b 406 897 131 787 245 897 b 669 597 569 897 669 780 b 401 294 669 408 556 294 b 131 594 236 294 131 405 m 523 769 b 429 797 516 781 477 797 b 243 587 330 797 243 741 b 420 394 243 448 306 394 b 502 412 465 394 490 405 b 520 444 513 422 519 433 b 511 472 519 450 515 463 b 436 456 494 466 463 456 b 322 562 370 456 331 481 b 318 590 319 570 318 580 b 419 736 318 694 369 731 b 456 734 433 736 445 736 b 487 727 469 733 479 730 b 504 723 493 725 498 723 b 513 726 508 723 511 725 b 523 769 518 734 523 758 "},"˘":{"x_min":106.9375,"x_max":497.21875,"ha":613,"o":"m 302 761 b 497 933 390 761 462 804 l 497 933 b 450 975 493 938 468 975 b 433 961 441 975 437 970 b 302 850 401 887 366 850 b 170 961 237 850 202 887 b 154 975 166 970 162 975 b 106 933 136 975 111 938 l 106 933 b 302 761 141 804 213 762 "},"≥":{"x_min":48.609375,"x_max":355.5625,"ha":406,"o":"m 86 215 b 48 119 66 215 56 184 b 81 113 61 116 70 113 b 305 136 145 113 243 126 b 355 233 338 140 352 181 b 325 243 348 237 334 241 b 86 215 262 234 161 222 m 86 556 b 222 455 86 556 208 465 b 86 358 208 445 86 358 b 101 290 86 343 91 305 b 125 270 108 279 116 272 b 155 280 134 269 144 272 l 326 408 b 348 445 337 418 348 429 b 336 491 348 466 344 481 b 156 629 336 491 176 611 b 127 640 144 638 136 641 b 101 616 115 638 106 629 b 86 556 93 600 86 570 "},"ò":{"x_min":41.671875,"x_max":577.78125,"ha":624,"o":"m 577 330 b 313 669 577 554 488 669 b 41 322 154 669 41 561 l 41 322 b 309 -19 41 81 137 -19 b 577 330 463 -19 577 98 m 170 327 b 309 576 170 508 236 576 l 312 576 b 450 326 395 576 450 508 b 312 70 450 134 386 70 b 170 327 230 70 170 136 m 233 1012 b 383 833 252 1012 338 897 b 384 822 384 829 384 825 b 341 770 384 800 361 775 b 177 930 302 808 227 880 b 162 947 169 938 165 943 b 233 1012 162 973 202 1012 "},"^":{"x_min":62.5,"x_max":472.21875,"ha":540,"o":"m 277 948 b 244 940 269 948 256 945 b 216 915 234 934 226 926 b 62 600 176 858 83 643 b 116 565 70 584 94 572 b 143 586 120 565 133 575 b 259 827 168 619 236 787 b 387 580 275 801 358 613 b 413 562 397 569 405 562 b 472 609 434 562 459 590 b 277 948 440 662 312 911 "},"«":{"x_min":45.828125,"x_max":569.4375,"ha":628,"o":"m 45 337 b 56 298 45 327 50 312 b 251 16 118 212 225 61 b 309 76 283 18 309 63 b 163 330 309 123 177 311 b 312 584 175 347 312 541 b 255 640 312 594 286 637 b 45 337 225 590 84 395 m 297 336 b 311 297 297 327 301 311 b 508 25 372 213 479 76 b 566 84 538 29 566 72 b 416 329 566 127 429 312 b 569 576 429 345 569 531 b 513 633 569 590 541 629 b 297 336 477 580 338 397 "},"D":{"x_min":83.328125,"x_max":684.71875,"ha":732,"o":"m 100 911 b 83 816 86 891 83 872 l 83 6 b 300 -6 155 -1 219 -6 b 558 84 373 -6 477 9 b 684 494 650 172 684 304 b 295 923 684 743 602 923 b 100 911 225 923 134 915 m 550 494 b 304 91 550 159 422 91 b 205 98 266 91 233 94 l 205 822 b 276 826 225 825 248 826 b 359 818 306 826 334 823 b 550 494 486 797 550 705 "},"ł":{"x_min":-5.546875,"x_max":336.9375,"ha":313,"o":"m 323 515 b 305 613 348 529 336 559 l 198 551 l 198 852 b 188 981 198 922 197 954 b 76 945 131 981 90 977 b 79 788 77 904 79 856 l 79 483 l 6 441 b 25 343 -15 429 -6 400 l 79 373 l 79 84 b 88 -4 79 50 81 22 b 201 12 154 -4 188 -2 b 198 186 200 59 198 125 l 198 443 l 323 515 "},"ÿ":{"x_min":13.890625,"x_max":516.671875,"ha":543,"o":"m 136 659 b 29 627 63 659 38 651 b 197 104 87 466 184 145 b 225 40 206 75 212 58 b 231 33 226 37 229 36 b 131 -180 212 -48 169 -161 b 22 -193 88 -198 52 -183 b 13 -230 22 -193 13 -218 b 119 -276 20 -254 54 -276 b 327 -20 180 -276 251 -216 b 509 586 402 187 472 431 b 516 623 513 600 516 612 b 509 652 516 634 513 644 b 448 655 481 654 462 655 b 406 643 426 655 418 652 b 336 341 387 556 359 447 b 288 150 316 256 295 169 b 243 334 284 162 265 250 b 163 604 216 431 177 559 b 136 659 158 626 144 659 m 111 861 b 172 786 111 809 127 786 b 240 863 225 786 238 818 b 180 933 241 909 231 933 b 111 861 133 933 111 908 m 329 861 b 390 786 329 809 345 786 b 458 863 443 786 456 818 b 398 933 459 909 450 933 b 329 861 351 933 329 908 "},"Ł":{"x_min":-5.546875,"x_max":502.78125,"ha":524,"o":"m 323 515 b 305 613 348 529 336 559 l 205 555 l 205 822 b 194 922 205 876 202 901 b 79 900 119 922 93 918 b 81 752 80 866 81 818 l 81 484 l 6 441 b 25 343 -15 429 -6 400 l 81 375 l 81 75 b 93 2 86 51 88 26 b 320 -4 147 -1 227 -4 b 458 -1 388 -4 430 -2 b 502 56 486 5 498 33 b 501 100 502 72 502 84 b 338 95 452 95 390 95 b 205 101 290 95 240 97 l 205 447 l 323 515 "},"í":{"x_min":63.890625,"x_max":286.109375,"ha":281,"o":"m 190 655 b 76 622 133 655 90 651 b 79 479 77 586 79 543 l 79 233 b 77 -4 79 148 77 66 b 184 11 155 -2 175 -2 b 201 84 197 30 201 52 l 201 556 b 190 655 201 615 200 636 m 215 1012 b 65 833 195 1012 109 897 b 63 822 63 829 63 825 b 106 770 63 800 87 775 b 270 930 145 808 220 880 b 286 947 279 938 283 943 b 215 1012 286 973 245 1012 "},"ˆ":{"x_min":119.4375,"x_max":440.28125,"ha":553,"o":"m 290 984 b 256 976 281 984 269 981 b 229 951 247 970 238 962 b 119 784 188 894 140 829 b 173 750 127 770 151 758 b 200 772 177 750 190 759 b 272 877 225 805 248 837 b 355 765 287 851 326 800 b 381 748 365 754 373 748 b 440 795 402 748 427 776 b 290 984 408 848 325 947 "},"w":{"x_min":22.21875,"x_max":822.4375,"ha":843,"o":"m 348 137 b 425 450 376 240 411 376 b 491 152 445 352 466 250 b 519 50 500 122 509 84 b 558 -13 526 26 544 -2 b 633 -8 594 -12 622 -9 b 659 40 647 -2 650 11 b 811 584 708 200 769 438 b 822 638 818 609 823 625 b 818 648 822 643 820 648 b 733 658 813 651 752 658 b 715 654 726 658 720 658 b 708 633 711 648 711 643 b 668 454 698 584 686 522 b 597 152 643 331 619 220 b 548 356 587 191 569 269 b 493 594 527 444 508 526 b 470 648 486 623 481 638 b 377 634 448 654 380 638 l 377 620 b 376 609 377 619 377 613 b 316 356 369 576 325 390 b 263 152 294 259 275 186 b 201 444 250 205 229 312 b 159 615 187 502 173 559 b 138 658 155 634 150 648 b 22 629 66 658 31 648 b 81 420 30 609 51 536 b 183 50 118 293 158 143 b 222 -13 190 26 208 -2 b 297 -8 258 -12 286 -9 b 323 40 311 -2 313 11 l 348 137 "},"$":{"x_min":75,"x_max":538.890625,"ha":617,"o":"m 456 381 b 372 454 431 406 404 427 b 265 545 331 486 295 515 b 213 627 237 573 219 598 l 213 633 b 345 730 213 697 265 730 b 452 711 388 730 425 722 b 476 705 462 706 470 705 b 491 708 481 705 487 705 b 515 777 505 727 515 759 b 370 825 504 793 458 819 l 384 986 b 281 941 318 986 281 980 l 268 822 b 84 637 137 801 84 719 b 145 498 84 593 100 550 b 248 406 172 469 208 440 b 319 343 273 384 298 363 b 408 201 386 288 408 252 b 268 94 408 123 351 94 b 101 143 201 94 140 113 b 75 58 87 123 75 79 b 91 31 75 48 79 41 b 244 -9 115 12 168 -6 l 230 -165 b 333 -120 300 -165 333 -159 l 347 -4 b 538 209 472 18 538 98 b 456 381 538 280 513 331 "},"∫":{"x_min":-61.109375,"x_max":462.65625,"ha":446,"o":"m 227 606 b 230 790 227 637 229 761 b 355 937 236 909 293 937 b 411 933 373 937 397 936 b 438 926 422 929 434 925 b 455 954 445 933 450 943 b 462 984 459 963 461 973 b 458 1006 462 991 463 1001 b 354 1033 445 1020 411 1033 b 113 804 256 1033 129 988 b 108 606 109 772 108 644 b 109 109 108 481 109 223 b 106 -68 109 52 111 -12 b 37 -200 101 -145 93 -200 b -58 -172 16 -201 -47 -181 b -61 -202 -59 -180 -61 -191 b -59 -241 -61 -215 -61 -229 b -38 -269 -56 -252 -50 -261 b 73 -295 -12 -286 30 -295 b 226 -62 202 -295 226 -175 b 227 606 226 86 227 450 "},"\\":{"x_min":34.71875,"x_max":405.5625,"ha":453,"o":"m 137 975 l 111 975 b 34 952 50 975 34 968 b 36 940 34 950 34 945 b 313 -86 129 597 220 255 b 404 -70 380 -86 397 -84 b 405 -50 405 -63 405 -56 b 390 41 405 -25 400 4 b 137 975 305 352 222 663 "},"Ì":{"x_min":-19.4375,"x_max":237.5,"ha":288,"o":"m 200 1020 b 237 1075 212 1025 237 1062 b 237 1076 237 1076 237 1076 b 219 1098 234 1083 227 1091 b 40 1229 168 1148 58 1229 b 18 1205 30 1229 22 1218 b -13 1172 5 1205 -8 1187 b -19 1148 -18 1163 -19 1155 b -4 1134 -16 1144 -12 1140 b 200 1020 61 1100 168 1034 m 94 -4 b 206 12 162 -4 195 -1 b 205 143 206 26 205 66 b 204 463 205 231 204 344 b 205 830 204 586 205 720 b 193 922 205 894 204 922 b 79 890 125 922 90 918 b 81 756 80 877 81 831 b 83 461 81 673 83 566 b 81 22 83 291 81 126 b 94 -4 81 2 86 -4 "},"µ":{"x_min":62.5,"x_max":563.890625,"ha":632,"o":"m 547 148 l 547 384 b 550 655 547 491 548 580 b 443 641 475 654 459 655 b 427 576 430 623 427 605 l 427 134 b 305 86 404 105 352 83 b 198 237 238 86 198 112 l 200 519 b 188 655 200 590 197 623 b 75 636 118 655 88 651 b 77 450 76 584 77 529 l 79 240 l 79 -129 b 62 -233 79 -173 72 -204 b 126 -268 69 -241 94 -254 b 136 -269 130 -269 133 -269 b 179 -227 161 -269 172 -251 l 179 1 b 273 -16 204 -9 234 -15 b 359 -1 304 -16 330 -11 b 455 52 390 8 420 25 b 498 11 461 29 473 11 b 508 12 500 11 504 11 b 563 44 538 26 556 36 b 547 148 554 72 547 104 "},"Ç":{"x_min":47.21875,"x_max":618.0625,"ha":646,"o":"m 315 -40 b 298 -100 305 -55 301 -83 b 416 -152 350 -100 416 -113 b 308 -233 416 -190 386 -208 b 290 -251 295 -236 290 -240 b 322 -294 290 -263 302 -291 b 506 -152 393 -283 506 -250 b 402 -45 506 -100 462 -59 b 315 -40 375 -38 343 -38 m 427 940 b 166 834 333 940 241 915 b 47 436 86 747 47 615 b 413 -20 47 88 188 -20 b 579 23 488 -20 552 1 b 611 87 598 40 608 62 b 600 130 609 105 605 120 b 433 90 569 111 500 90 b 177 444 270 90 177 200 b 415 834 177 712 287 823 b 444 836 425 836 434 836 b 488 833 461 836 475 834 b 554 813 513 829 536 822 b 593 801 570 806 583 800 b 598 801 595 801 597 801 b 618 870 609 816 618 840 b 427 940 605 895 543 940 "},"’":{"x_min":45.828125,"x_max":212.5,"ha":260,"o":"m 76 961 b 86 908 79 943 80 923 b 95 900 87 904 91 901 b 45 716 94 838 77 773 b 87 701 55 705 72 701 b 130 727 104 704 116 712 b 211 919 165 765 205 847 b 212 936 212 925 212 930 b 169 1009 212 976 200 1005 b 152 1012 165 1011 159 1012 b 76 961 119 1012 87 988 "},"-":{"x_min":48.609375,"x_max":355.5625,"ha":406,"o":"m 305 318 b 355 415 337 322 351 363 b 325 425 347 419 334 423 b 84 397 261 416 161 404 b 48 301 65 397 55 366 b 80 295 59 298 69 295 b 305 318 145 295 243 308 "},"Q":{"x_min":47.21875,"x_max":1059.71875,"ha":800,"o":"m 965 -94 b 770 -104 912 -81 845 -91 b 563 -120 693 -118 622 -137 b 487 -11 505 -100 491 -47 b 752 468 648 25 754 169 b 405 940 752 765 644 940 b 47 456 173 940 47 775 b 343 -12 47 205 131 9 b 504 -220 341 -70 397 -206 b 722 -190 563 -227 641 -209 b 938 -163 802 -172 879 -158 b 1041 -195 988 -168 1023 -181 b 1059 -155 1048 -183 1052 -172 b 965 -94 1038 -133 1009 -105 m 402 80 b 183 448 276 80 183 201 b 404 837 183 716 266 837 b 620 462 538 834 620 730 b 402 80 620 200 538 80 "},"M":{"x_min":50,"x_max":856.953125,"ha":922,"o":"m 126 887 b 50 5 97 570 63 231 b 54 2 50 4 51 2 b 116 -1 79 -1 100 -1 b 161 9 140 -1 152 2 b 175 68 169 26 170 43 b 204 388 180 154 191 270 b 209 581 208 437 208 522 b 209 698 209 609 209 670 b 258 548 218 675 237 616 b 297 425 276 490 293 437 b 404 105 337 305 380 183 b 466 111 425 105 448 106 b 497 138 483 113 491 120 b 593 402 529 227 561 318 b 690 693 619 475 661 601 b 691 695 690 694 691 694 b 695 566 693 659 693 622 b 701 379 697 504 697 430 b 706 300 702 354 705 327 b 720 129 712 236 716 177 b 726 52 720 101 725 80 b 741 -4 726 29 730 12 b 856 15 813 -4 847 -1 b 829 344 851 102 843 218 b 787 858 813 515 800 686 b 775 922 784 888 780 904 b 672 913 741 922 697 918 b 658 888 665 908 662 898 b 529 529 619 784 575 655 b 486 408 515 494 500 447 b 452 319 473 377 462 344 b 423 406 443 344 434 372 b 388 513 412 440 400 480 b 375 556 384 529 379 543 b 238 922 326 698 269 859 b 161 918 209 922 184 920 b 136 913 151 916 141 916 b 126 887 127 909 126 895 "},"C":{"x_min":47.21875,"x_max":618.0625,"ha":646,"o":"m 427 940 b 166 834 333 940 241 915 b 47 436 86 747 47 615 b 413 -20 47 88 188 -20 b 579 23 488 -20 552 1 b 611 87 598 40 608 62 b 600 130 609 105 605 120 b 433 90 569 111 500 90 b 177 444 270 90 177 200 b 415 834 177 712 287 823 b 444 836 425 836 434 836 b 488 833 461 836 475 834 b 554 813 513 829 536 822 b 593 801 570 806 583 800 b 598 801 595 801 597 801 b 618 870 609 816 618 840 b 427 940 605 895 543 940 "},"œ":{"x_min":38.890625,"x_max":922.21875,"ha":961,"o":"m 816 294 b 912 326 852 298 898 313 b 922 440 919 356 922 400 b 718 668 919 570 856 668 b 516 561 633 668 561 634 b 312 668 473 633 402 668 l 311 668 b 134 600 243 668 180 643 b 38 322 72 540 38 444 b 304 -20 38 76 134 -20 b 504 84 388 -20 462 16 b 711 -18 554 19 630 -18 b 838 -1 763 -18 813 -8 b 898 61 865 8 897 36 b 890 118 897 79 894 104 b 737 84 856 100 801 84 b 570 298 634 84 570 137 b 740 293 618 294 683 293 b 816 294 768 293 794 293 m 308 69 b 168 326 230 69 168 131 b 308 575 168 508 231 575 b 448 327 391 575 448 511 b 308 69 448 133 380 69 m 573 386 b 702 576 584 526 641 576 l 704 576 b 802 415 777 576 802 522 b 787 380 801 400 795 386 b 730 376 773 377 754 376 b 573 386 683 376 623 380 "},"!":{"x_min":63.890625,"x_max":212.5,"ha":268,"o":"m 88 284 b 187 336 137 284 183 297 b 212 829 193 443 209 711 b 198 911 212 865 206 890 b 65 877 118 911 66 902 b 88 284 69 720 83 420 m 137 145 b 63 68 87 145 63 119 b 129 -12 63 12 80 -12 b 201 70 186 -12 200 22 b 137 145 202 120 193 145 "},"ç":{"x_min":44.4375,"x_max":484.71875,"ha":518,"o":"m 484 613 b 336 669 479 631 418 669 b 145 601 269 669 200 652 b 44 313 91 551 44 461 b 322 -19 44 36 172 -19 b 444 11 372 -19 418 -6 b 475 66 461 23 473 47 b 466 105 475 76 470 91 b 347 79 437 91 393 79 b 169 320 256 79 169 120 b 319 570 169 487 231 563 b 338 572 326 572 331 572 b 422 554 366 572 397 565 b 459 545 436 550 450 545 b 466 545 462 545 465 545 b 484 613 477 565 484 595 m 226 -40 b 209 -100 216 -55 212 -83 b 327 -152 261 -100 327 -113 b 219 -233 327 -190 297 -208 b 201 -251 206 -236 201 -240 b 233 -294 201 -263 213 -291 b 418 -152 304 -283 418 -250 b 313 -45 418 -100 373 -59 b 226 -40 286 -38 254 -38 "},"È":{"x_min":80.5625,"x_max":505.5625,"ha":535,"o":"m 343 1020 b 380 1076 356 1025 380 1065 b 362 1098 376 1083 370 1091 b 183 1229 311 1148 201 1229 b 161 1205 173 1229 165 1218 b 127 1172 148 1205 133 1187 b 122 1148 123 1163 122 1155 b 137 1134 125 1144 130 1140 b 343 1020 204 1100 309 1034 m 205 98 l 205 437 l 409 437 b 463 537 443 437 454 450 l 205 537 l 205 820 l 329 820 b 456 826 383 820 423 820 b 487 919 476 834 483 852 l 151 919 b 80 898 119 918 95 902 b 83 725 83 843 83 786 l 83 59 b 93 2 86 40 88 22 b 295 -4 137 -1 209 -4 b 459 -1 373 -4 423 -2 b 505 95 487 5 498 25 b 504 97 505 97 504 97 b 322 94 448 94 379 94 b 205 98 277 94 233 95 "},"ﬁ":{"x_min":22.21875,"x_max":551.390625,"ha":646,"o":"m 540 655 b 461 654 522 654 491 654 l 229 651 b 230 741 229 681 229 712 b 355 888 236 861 293 888 b 462 869 390 888 436 877 b 515 855 483 863 506 855 b 531 883 522 862 526 870 b 538 913 536 893 537 902 b 534 936 538 920 540 929 b 486 961 525 947 515 950 b 354 984 452 972 408 987 b 113 755 256 984 129 940 b 108 651 109 723 108 688 b 54 638 87 647 70 643 b 22 575 31 634 27 626 b 108 558 37 563 63 559 b 109 200 108 433 109 313 b 108 30 109 143 108 86 b 109 -1 108 18 108 6 b 140 -4 119 -2 129 -4 b 219 1 156 -4 197 -2 b 230 27 230 5 230 20 b 227 558 229 176 227 401 b 429 561 258 558 354 559 l 429 233 b 427 -4 429 148 427 66 b 534 11 505 -2 525 -2 b 551 84 547 30 551 52 l 551 556 b 540 655 551 615 550 636 "},"{":{"x_min":52.78125,"x_max":397.21875,"ha":451,"o":"m 230 859 b 330 959 233 884 250 941 b 354 965 330 959 354 965 b 383 970 365 966 373 968 b 393 979 388 972 391 975 b 395 986 394 980 395 983 b 387 1011 395 991 391 1000 b 377 1037 384 1016 380 1029 b 230 1005 325 1034 269 1022 b 115 841 156 975 115 916 b 163 677 115 791 140 734 b 198 583 177 644 190 612 b 202 537 201 569 204 550 b 55 448 201 500 179 454 b 52 426 54 443 52 431 b 62 394 52 413 56 402 b 98 373 70 383 83 375 b 202 295 186 365 200 329 b 198 243 205 276 201 258 b 163 144 190 212 177 179 b 113 -33 138 84 113 23 b 181 -175 113 -95 137 -143 b 376 -223 225 -206 288 -222 b 386 -202 377 -219 381 -208 b 397 -170 391 -191 397 -180 b 395 -163 397 -169 395 -166 b 383 -156 394 -161 390 -158 b 361 -152 383 -156 361 -152 b 329 -147 351 -151 340 -150 b 227 -38 265 -134 227 -93 b 233 0 227 -23 230 -13 b 265 93 241 27 252 59 b 308 227 283 136 300 180 b 316 277 312 244 316 261 b 213 418 316 351 281 393 b 315 563 286 443 315 487 b 266 730 315 619 288 677 b 234 809 254 758 241 786 b 230 859 231 822 229 844 "},"X":{"x_min":15.28125,"x_max":673.609375,"ha":690,"o":"m 672 15 b 419 483 616 127 541 270 b 638 873 506 630 590 776 b 648 911 643 887 645 898 b 556 920 609 916 576 920 b 529 911 541 920 533 916 l 523 898 b 456 770 502 858 480 813 b 356 575 420 701 387 629 b 265 761 327 629 297 693 b 205 872 247 795 227 833 b 172 922 191 898 183 912 b 58 911 126 922 87 916 b 47 895 48 906 47 901 b 273 469 102 784 202 609 b 15 8 181 308 84 138 b 47 2 25 6 31 4 b 115 -2 72 -2 102 -2 b 145 12 127 -2 137 0 b 233 172 168 56 200 113 b 337 369 270 241 308 315 b 437 172 370 308 405 236 b 522 6 468 113 495 61 b 576 -5 540 -2 558 -5 b 672 6 612 -5 658 -5 b 673 8 673 6 673 6 b 672 15 673 12 673 12 "},"ô":{"x_min":41.671875,"x_max":577.78125,"ha":624,"o":"m 577 330 b 313 669 577 554 488 669 b 41 322 154 669 41 561 l 41 322 b 309 -19 41 81 137 -19 b 577 330 463 -19 577 98 m 170 327 b 309 576 170 508 236 576 l 312 576 b 450 326 395 576 450 508 b 312 70 450 134 386 70 b 170 327 230 70 170 136 m 330 1012 b 297 1004 322 1012 309 1009 b 269 979 287 998 279 990 b 159 812 229 922 180 856 b 213 777 168 798 191 786 b 240 800 218 777 230 787 b 312 905 265 833 288 865 b 395 793 327 879 366 827 b 422 776 405 781 413 776 b 480 823 443 776 468 804 b 330 1012 448 876 365 975 "},"#":{"x_min":38.890625,"x_max":568.0625,"ha":617,"o":"m 129 281 b 104 126 120 229 112 177 b 166 115 129 120 152 115 b 216 281 205 115 208 229 l 348 281 b 325 129 340 233 325 176 b 330 113 325 122 326 116 b 434 281 452 113 423 213 l 529 281 b 545 325 533 287 545 323 b 540 341 545 329 544 334 l 540 368 l 447 368 b 469 533 454 423 462 477 l 550 533 b 568 575 556 541 568 572 b 561 593 568 580 565 586 b 562 619 562 598 562 608 l 481 619 b 501 752 487 663 501 709 b 497 766 501 758 501 762 b 393 619 375 766 401 676 l 263 619 b 284 751 270 662 284 711 b 279 766 284 758 283 762 b 175 619 158 766 184 680 l 83 619 b 65 575 79 613 65 579 b 70 559 65 570 66 566 l 70 533 l 163 533 b 140 368 155 477 148 423 l 56 368 b 38 325 51 356 38 329 b 45 309 38 320 41 315 b 44 281 44 302 44 294 l 129 281 m 251 533 l 381 533 b 359 368 373 477 366 423 l 229 368 b 251 533 236 423 244 477 "},"":{"x_min":-93.0625,"x_max":214.015625,"ha":694,"o":"m 194 655 b 81 622 137 655 95 651 b 84 451 83 576 84 525 l 84 97 b 81 -13 84 56 83 19 b 19 -159 77 -98 65 -140 b -70 -181 -11 -173 -43 -181 b -84 -180 -76 -181 -80 -180 b -93 -220 -90 -190 -93 -208 b -44 -266 -88 -245 -70 -262 b 2 -272 -31 -270 -16 -272 b 34 -270 12 -272 23 -272 b 156 -191 87 -263 129 -236 b 197 -51 180 -154 191 -106 b 205 125 202 2 205 61 l 205 566 b 194 655 205 620 202 640 m 76 891 b 141 811 76 836 93 811 b 213 894 198 811 212 845 b 150 969 215 944 205 969 b 76 891 100 969 76 943 "},"Ê":{"x_min":80.5625,"x_max":505.5625,"ha":535,"o":"m 205 98 l 205 437 l 409 437 b 463 537 443 437 454 450 l 205 537 l 205 820 l 329 820 b 456 826 383 820 423 820 b 487 919 476 834 483 852 l 151 919 b 80 898 119 918 95 902 b 83 725 83 843 83 786 l 83 59 b 93 2 86 40 88 22 b 295 -4 137 -1 209 -4 b 459 -1 373 -4 423 -2 b 505 95 487 5 498 25 b 504 97 505 97 504 97 b 322 94 448 94 379 94 b 205 98 277 94 233 95 m 295 1205 b 255 1190 286 1205 262 1201 b 116 1043 212 1147 143 1073 b 169 1001 122 1027 144 1008 b 176 1002 169 1001 172 1001 b 187 1009 180 1004 186 1008 b 281 1102 211 1027 247 1061 b 375 1012 301 1084 345 1036 b 405 1000 384 1004 395 1000 b 459 1054 425 1000 451 1030 b 295 1205 420 1091 333 1179 "},")":{"x_min":48.609375,"x_max":348.609375,"ha":433,"o":"m 237 406 b 237 400 237 405 237 402 b 48 -180 237 138 154 -59 b 102 -259 51 -218 70 -254 b 348 418 194 -194 348 43 l 348 419 b 109 1047 348 801 173 1013 b 48 977 81 1047 58 1023 b 237 406 162 858 237 654 "},"Å":{"x_min":13.890625,"x_max":722.21875,"ha":739,"o":"m 233 1131 b 366 998 233 1052 294 998 b 506 1134 447 998 506 1056 b 372 1270 506 1204 452 1270 b 233 1131 290 1270 233 1206 m 301 1133 b 369 1208 301 1172 329 1208 b 440 1133 413 1208 440 1172 b 370 1059 440 1094 413 1059 b 301 1133 331 1059 301 1091 m 584 18 b 638 -5 606 -1 622 -5 b 716 4 662 -5 700 -1 b 722 13 719 6 722 9 b 720 18 722 13 720 16 b 631 283 697 88 670 173 b 423 911 573 459 486 722 b 397 925 418 918 408 922 b 359 922 388 925 375 925 b 330 916 350 922 338 918 b 316 887 323 916 320 905 b 25 52 254 688 102 284 b 13 4 19 37 15 22 b 97 -5 38 -1 77 -5 b 140 13 127 -5 136 1 b 222 254 161 76 190 162 l 511 254 b 584 18 543 159 559 94 m 283 450 b 369 737 322 566 345 650 b 427 533 381 688 398 625 b 481 352 445 477 462 416 l 252 352 l 283 450 "},"ø":{"x_min":51.390625,"x_max":593.0625,"ha":644,"o":"m 162 27 b 326 -20 202 -6 256 -20 b 512 69 402 -20 469 11 b 591 327 555 123 591 206 b 533 545 591 415 572 493 b 593 648 556 583 584 630 b 543 697 588 673 566 694 b 481 619 534 698 506 654 b 327 668 443 652 394 668 b 141 586 254 668 188 638 b 55 322 84 526 55 436 b 113 94 55 226 75 147 b 51 -6 84 50 56 5 b 100 -52 55 -30 79 -50 b 162 27 111 -54 138 -2 m 180 323 b 323 576 180 504 244 576 b 412 531 361 576 390 565 b 202 205 343 423 272 312 b 180 323 187 236 180 275 m 326 69 b 231 122 287 69 255 80 b 444 452 293 215 376 345 b 466 323 458 419 466 376 b 326 69 466 134 401 69 "},"â":{"x_min":33.328125,"x_max":506.9375,"ha":549,"o":"m 79 572 b 100 516 81 555 87 530 b 140 527 111 516 125 520 b 286 563 180 544 237 563 b 352 466 345 563 352 529 l 352 387 b 306 391 340 390 325 391 b 268 390 294 391 281 391 b 33 168 184 381 33 338 b 206 -15 33 40 118 -15 b 308 2 244 -15 277 -12 b 348 34 323 11 340 26 b 431 -15 362 15 398 -15 b 505 16 468 -13 494 1 b 506 68 505 25 505 48 b 468 131 462 59 468 131 l 468 131 b 470 412 468 205 470 316 l 470 475 b 334 668 470 593 437 661 b 286 669 311 669 308 669 b 80 602 193 666 109 630 b 77 587 79 598 77 593 b 79 572 77 581 77 576 m 350 143 b 345 123 348 134 347 126 b 238 80 326 100 280 80 l 229 80 b 155 179 186 83 155 108 b 279 306 155 266 212 295 b 325 309 293 308 308 309 b 352 308 334 309 344 309 l 352 209 b 350 143 352 180 352 159 m 286 1012 b 252 1004 277 1012 265 1009 b 225 979 243 998 234 990 b 115 812 184 922 136 856 b 169 777 123 798 147 786 b 195 800 173 777 186 787 b 268 905 220 833 244 865 b 351 793 283 879 322 827 b 377 776 361 781 369 776 b 436 823 398 776 423 804 b 286 1012 404 876 320 975 "},"}":{"x_min":52.78125,"x_max":397.21875,"ha":451,"o":"m 219 859 b 119 959 216 884 200 941 b 95 965 119 959 95 965 b 66 970 84 966 76 968 b 56 979 61 972 58 975 b 54 986 55 980 54 983 b 62 1011 54 991 58 1000 b 72 1037 65 1016 69 1029 b 219 1005 125 1034 180 1022 b 334 841 293 975 334 916 b 286 677 334 791 309 734 b 251 583 272 644 259 612 b 247 537 248 569 245 550 b 394 448 248 500 270 454 b 397 426 395 443 397 431 b 387 394 397 413 393 402 b 351 373 379 383 366 375 b 247 295 263 365 250 329 b 251 243 244 276 248 258 b 286 144 259 212 272 179 b 336 -33 311 84 336 23 b 268 -175 336 -95 312 -143 b 73 -223 225 -206 161 -222 b 63 -202 72 -219 68 -208 b 52 -170 58 -191 52 -180 b 54 -163 52 -169 54 -166 b 66 -156 55 -161 59 -158 b 88 -152 66 -156 88 -152 b 120 -147 98 -151 109 -150 b 222 -38 184 -134 222 -93 b 216 0 222 -23 219 -13 b 184 93 208 27 197 59 b 141 227 166 136 150 180 b 133 277 137 244 133 261 b 236 418 133 351 168 393 b 134 563 163 443 134 487 b 183 730 134 619 161 677 b 215 809 195 758 208 786 b 219 859 218 822 220 844 "},"‰":{"x_min":61.109375,"x_max":1325,"ha":1374,"o":"m 947 223 b 1137 -16 947 33 1025 -16 b 1325 226 1261 -16 1325 79 b 1143 469 1325 408 1254 469 b 947 223 1012 469 947 365 m 1048 223 b 1138 390 1048 334 1083 390 b 1226 226 1195 390 1226 345 b 1137 61 1226 112 1190 61 b 1048 223 1079 61 1048 111 m 61 669 b 248 426 61 483 134 426 b 438 672 375 426 438 525 b 255 912 438 855 365 912 l 254 912 b 61 669 125 912 61 808 m 527 225 b 716 -15 527 34 605 -15 b 905 227 841 -15 905 80 b 723 470 905 409 834 470 l 722 470 b 527 225 593 470 527 366 m 218 -40 b 247 -6 225 -40 233 -30 b 781 884 419 269 722 780 b 750 920 779 900 766 909 b 726 931 738 927 729 931 b 706 908 723 931 716 925 b 165 2 573 688 234 130 b 218 -40 166 -15 213 -38 m 627 223 b 719 390 627 334 662 390 b 806 226 776 390 806 345 b 716 61 806 112 769 61 b 627 223 656 61 627 111 m 162 668 b 252 834 162 780 198 834 l 254 834 b 340 672 308 834 340 790 b 250 505 340 558 304 505 b 162 668 193 505 162 555 "},"Ä":{"x_min":13.890625,"x_max":722.21875,"ha":739,"o":"m 584 18 b 638 -5 606 -1 622 -5 b 716 4 662 -5 700 -1 b 722 13 719 6 722 9 b 720 18 722 13 720 16 b 631 283 697 88 670 173 b 423 911 573 459 486 722 b 397 925 418 918 408 922 b 359 922 388 925 375 925 b 330 916 350 922 338 918 b 316 887 323 916 320 905 b 25 52 254 688 102 284 b 13 4 19 37 15 22 b 97 -5 38 -1 77 -5 b 140 13 127 -5 136 1 b 222 254 161 76 190 162 l 511 254 b 584 18 543 159 559 94 m 283 450 b 369 737 322 566 345 650 b 427 533 381 688 398 625 b 481 352 445 477 462 416 l 252 352 l 283 450 m 188 1093 b 250 1018 188 1041 205 1018 b 318 1095 302 1018 316 1050 b 258 1165 319 1141 309 1165 b 188 1093 211 1165 188 1140 m 420 1093 b 481 1018 420 1041 437 1018 b 550 1095 534 1018 548 1050 b 490 1165 551 1141 541 1165 b 420 1093 443 1165 420 1140 "},"¸":{"x_min":105.5625,"x_max":322.21875,"ha":382,"o":"m 130 -40 b 113 -100 120 -55 116 -83 b 231 -152 165 -100 231 -113 b 123 -233 231 -190 201 -208 b 105 -251 111 -236 105 -240 b 137 -294 105 -263 118 -291 b 322 -152 208 -283 322 -250 b 218 -45 322 -100 277 -59 b 130 -40 190 -38 158 -38 "},"a":{"x_min":33.328125,"x_max":506.9375,"ha":549,"o":"m 79 572 b 100 516 81 555 87 530 b 140 527 111 516 125 520 b 286 563 180 544 237 563 b 352 466 345 563 352 529 l 352 387 b 306 391 340 390 325 391 b 268 390 294 391 281 391 b 33 168 184 381 33 338 b 206 -15 33 40 118 -15 b 308 2 244 -15 277 -12 b 348 34 323 11 340 26 b 431 -15 362 15 398 -15 b 505 16 468 -13 494 1 b 506 68 505 25 505 48 b 468 131 462 59 468 131 l 468 131 b 470 412 468 205 470 316 l 470 475 b 334 668 470 593 437 661 b 286 669 311 669 308 669 b 80 602 193 666 109 630 b 77 587 79 598 77 593 b 79 572 77 581 77 576 m 350 143 b 345 123 348 134 347 126 b 238 80 326 100 280 80 l 229 80 b 155 179 186 83 155 108 b 279 306 155 266 212 295 b 325 309 293 308 308 309 b 352 308 334 309 344 309 l 352 209 b 350 143 352 180 352 159 "},"—":{"x_min":37.5,"x_max":1097.21875,"ha":1135,"o":"m 1081 338 b 1097 412 1094 347 1095 369 l 150 412 b 51 388 115 412 79 406 b 37 313 38 380 37 358 l 988 313 b 1081 338 1022 313 1054 316 "},"=":{"x_min":66.671875,"x_max":626.390625,"ha":693,"o":"m 66 455 l 591 455 b 626 548 620 455 625 486 l 101 548 b 66 455 73 548 68 520 m 66 188 l 591 188 b 626 281 620 188 625 219 l 101 281 b 66 188 73 281 68 252 "},"N":{"x_min":66.671875,"x_max":688.890625,"ha":774,"o":"m 406 551 b 331 683 380 597 356 640 b 204 909 280 770 234 851 b 162 922 190 918 175 922 b 68 911 140 922 81 919 b 66 898 66 906 66 898 b 83 875 66 895 77 881 l 83 281 b 80 -4 83 170 81 76 b 187 13 154 -4 172 -2 b 200 88 195 33 200 52 l 200 416 b 190 718 198 495 195 613 b 223 645 202 690 209 676 b 313 452 252 583 284 512 l 370 348 b 569 -1 441 223 511 105 b 626 -8 583 -6 613 -8 b 686 13 652 -8 681 11 l 686 634 b 688 922 686 744 687 840 b 583 906 615 922 606 922 b 570 831 575 887 570 866 l 570 491 b 577 245 570 415 573 309 b 579 216 579 236 579 226 l 579 205 b 454 466 548 277 501 376 l 406 551 "},"˚":{"x_min":141.671875,"x_max":415.28125,"ha":546,"o":"m 141 925 b 275 791 141 845 202 791 b 415 927 355 791 415 850 b 280 1063 415 997 361 1063 b 141 925 198 1063 141 1000 m 209 926 b 277 1001 209 965 237 1001 b 348 926 322 1001 348 965 b 279 852 348 887 322 852 b 209 926 240 852 209 884 "},"ú":{"x_min":77.78125,"x_max":563.890625,"ha":632,"o":"m 427 134 b 305 86 404 105 354 83 b 200 237 238 86 200 112 l 213 519 b 202 655 213 590 211 623 b 88 636 131 655 102 651 b 91 450 90 584 91 529 l 77 219 b 273 -16 80 72 112 -9 b 359 -1 304 -16 330 -11 b 455 52 390 8 422 25 b 498 11 461 29 473 11 b 508 12 500 11 504 11 b 563 44 538 26 556 36 b 547 148 554 72 547 104 l 547 384 b 550 655 547 491 548 580 l 550 655 b 443 641 475 654 459 655 b 427 576 430 623 427 605 l 427 134 m 383 1012 b 233 833 363 1012 277 897 b 231 822 231 829 231 825 b 275 770 231 800 255 775 b 438 930 313 808 388 880 b 454 947 447 938 451 943 b 383 1012 454 973 413 1012 "},"⁄":{"x_min":47.21875,"x_max":654.171875,"ha":699,"o":"m 98 -56 b 102 -58 100 -58 101 -58 b 130 -23 108 -58 116 -47 b 654 866 295 256 597 762 b 620 906 651 884 637 897 b 597 918 609 913 598 918 b 577 893 594 918 587 909 b 47 -12 447 669 115 116 b 98 -56 51 -31 90 -48 "},"2":{"x_min":48.609375,"x_max":569.4375,"ha":617,"o":"m 101 673 b 279 727 134 695 208 727 b 400 605 356 727 400 686 b 77 105 400 470 270 358 b 48 33 56 77 52 61 b 56 4 50 25 52 13 b 379 -1 145 -1 255 -1 b 527 5 443 -1 494 2 b 569 105 548 8 565 47 b 409 100 544 105 473 100 b 209 101 338 100 270 100 b 436 384 318 241 383 311 b 526 587 484 451 518 519 b 529 622 527 598 529 611 b 311 834 529 740 475 834 l 309 834 b 61 737 197 834 94 793 b 87 665 61 722 66 665 b 101 673 91 665 95 669 "},"ü":{"x_min":77.78125,"x_max":563.890625,"ha":632,"o":"m 427 134 b 305 86 404 105 354 83 b 200 237 238 86 200 112 l 213 519 b 202 655 213 590 211 623 b 88 636 131 655 102 651 b 91 450 90 584 91 529 l 77 219 b 273 -16 80 72 112 -9 b 359 -1 304 -16 330 -11 b 455 52 390 8 422 25 b 498 11 461 29 473 11 b 508 12 500 11 504 11 b 563 44 538 26 556 36 b 547 148 554 72 547 104 l 547 384 b 550 655 547 491 548 580 l 550 655 b 443 641 475 654 459 655 b 427 576 430 623 427 605 l 427 134 m 138 861 b 200 786 138 809 155 786 b 268 863 252 786 266 818 b 208 933 269 909 259 933 b 138 861 161 933 138 908 m 356 861 b 418 786 356 809 373 786 b 486 863 470 786 484 818 b 426 933 487 909 477 933 b 356 861 379 933 356 908 "},"¯":{"x_min":147.21875,"x_max":448.609375,"ha":611,"o":"m 181 912 b 147 834 162 913 154 897 b 177 826 158 830 166 827 b 400 823 243 819 337 820 b 448 901 430 823 444 851 b 418 913 440 905 427 911 b 181 912 355 912 256 911 "},"Z":{"x_min":33.328125,"x_max":620.359375,"ha":649,"o":"m 62 841 b 62 838 62 840 62 838 b 133 822 62 827 80 822 l 454 822 b 34 65 352 619 184 315 b 33 48 34 59 33 54 b 34 30 33 43 34 37 b 50 1 37 15 47 4 b 395 -4 119 -1 226 -4 b 570 0 500 -4 540 -2 b 619 55 591 2 609 30 b 618 100 620 70 620 86 b 505 93 604 98 562 93 b 191 97 398 93 272 94 b 579 822 338 355 505 661 b 595 888 590 845 595 868 b 594 915 595 900 594 908 b 594 919 594 916 594 918 l 180 919 b 95 925 144 919 118 922 b 73 901 80 922 76 906 b 62 841 69 883 66 863 "},"u":{"x_min":72.21875,"x_max":563.890625,"ha":632,"o":"m 198 625 b 148 672 193 647 179 672 b 137 670 147 672 143 672 b 72 631 101 654 80 641 b 91 509 83 598 91 561 l 77 219 b 273 -16 80 72 112 -9 b 359 -1 304 -16 330 -11 b 455 52 390 8 422 25 b 498 11 461 29 473 11 b 508 12 500 11 504 11 b 563 44 538 26 556 36 b 547 148 554 72 547 104 l 547 384 b 550 655 547 491 548 580 l 550 655 b 443 641 475 654 459 655 b 427 576 430 623 427 605 l 427 134 b 305 86 404 105 354 83 b 200 237 238 86 200 112 l 213 491 b 198 625 213 562 206 593 "},"˜":{"x_min":111.109375,"x_max":484.71875,"ha":611,"o":"m 234 858 b 270 838 248 858 256 852 b 358 781 297 812 312 781 b 484 906 429 781 476 850 b 437 948 480 913 455 948 b 420 934 429 948 425 944 b 368 880 411 901 397 880 b 331 902 355 880 344 890 b 247 955 305 927 286 955 b 111 825 179 955 138 906 b 168 790 115 820 144 790 b 183 805 175 790 179 797 b 234 858 195 834 213 854 "},"Ó":{"x_min":44.4375,"x_max":750,"ha":794,"o":"m 179 450 b 400 81 179 201 270 81 b 618 463 536 81 618 201 b 397 837 618 726 522 837 l 395 837 b 179 450 266 837 179 718 m 401 940 b 750 468 640 940 750 765 b 393 -20 750 158 633 -20 b 44 456 143 -20 44 162 b 401 940 44 775 170 940 m 344 998 b 555 1102 391 1019 488 1072 b 575 1125 566 1108 575 1115 b 520 1202 569 1152 547 1198 b 334 1081 497 1202 393 1133 b 309 1054 323 1072 316 1062 b 344 998 309 1045 326 1004 "},"k":{"x_min":75,"x_max":586.515625,"ha":550,"o":"m 76 -4 b 197 38 187 -4 197 -4 l 197 240 b 220 219 204 234 216 223 b 306 127 234 204 290 145 b 436 -25 356 73 413 -4 b 509 -56 466 -48 481 -56 b 559 -50 527 -56 545 -54 b 580 -20 579 -43 595 -31 b 300 300 516 54 355 262 b 486 548 344 315 486 390 l 486 548 b 369 681 486 606 461 681 b 197 623 306 681 248 666 l 197 873 b 180 983 197 944 191 965 b 75 941 125 983 88 975 l 76 902 b 79 776 77 865 79 823 l 79 268 b 76 -4 79 216 77 44 m 197 505 b 311 584 233 556 279 584 b 356 529 343 584 356 561 b 197 343 356 448 283 381 l 197 505 "},"ˇ":{"x_min":90.28125,"x_max":409.71875,"ha":496,"o":"m 238 756 b 272 765 248 756 259 761 b 300 790 283 770 291 779 b 409 956 340 847 388 912 b 355 991 401 970 377 983 b 329 969 352 991 341 981 b 256 863 305 936 280 904 b 175 976 243 890 204 941 b 147 993 165 987 155 993 b 90 945 127 993 101 965 b 238 756 122 893 205 794 "},"Ù":{"x_min":76.390625,"x_max":687.5,"ha":767,"o":"m 434 1015 b 461 1045 444 1018 452 1030 b 470 1069 466 1055 470 1065 b 470 1070 470 1070 470 1070 b 452 1093 468 1077 461 1086 b 273 1223 402 1143 291 1223 b 251 1200 265 1223 256 1212 b 212 1143 230 1200 212 1156 b 229 1129 215 1138 220 1134 b 434 1015 295 1094 401 1029 m 388 79 b 213 279 279 79 234 156 b 204 433 206 325 204 375 l 204 818 b 190 922 204 873 202 900 b 76 904 120 922 87 918 b 79 686 77 847 79 776 l 79 422 b 86 275 79 369 81 320 b 380 -20 105 104 168 -20 b 647 65 488 -20 593 0 b 684 440 672 169 684 290 l 684 661 b 687 922 684 763 686 850 b 581 906 615 922 602 920 b 568 820 573 883 568 856 l 566 440 b 538 109 566 325 558 204 b 388 79 516 95 479 79 "},"Ÿ":{"x_min":15.28125,"x_max":620.828125,"ha":642,"o":"m 327 520 b 150 912 300 579 186 834 l 80 912 b 15 902 25 912 15 909 b 16 900 15 902 16 900 b 183 575 63 802 131 679 b 256 415 218 508 241 455 b 259 383 259 406 259 397 l 259 56 b 270 -5 259 31 262 13 b 384 13 354 -5 372 -1 b 383 191 384 56 383 113 l 383 394 b 402 463 386 416 394 441 b 605 850 436 543 566 755 b 620 900 613 869 620 883 b 618 916 620 902 619 911 b 552 920 586 919 566 920 b 509 912 536 920 525 918 l 327 520 m 143 1093 b 204 1018 143 1041 159 1018 b 272 1095 256 1018 270 1050 b 212 1165 273 1141 263 1165 b 143 1093 165 1165 143 1140 m 375 1093 b 436 1018 375 1041 391 1018 b 504 1095 488 1018 502 1050 b 444 1165 505 1141 495 1165 b 375 1093 397 1165 375 1140 "},"€":{"x_min":-4.09375,"x_max":618.0625,"ha":646,"o":"m 444 836 b 415 834 434 836 425 836 b 195 609 318 826 230 759 l 520 643 b 488 550 525 593 522 554 l 180 518 b 177 444 179 494 177 470 b 179 402 177 430 177 415 l 429 427 b 397 334 433 377 430 337 l 188 312 b 433 90 218 161 304 90 b 600 130 500 90 569 111 b 611 87 605 120 609 105 b 579 23 608 62 598 40 b 413 -20 552 1 488 -20 b 55 298 222 -20 90 59 l -2 293 b 4 377 -5 327 -4 368 b 36 387 12 383 23 386 l 48 388 b 47 436 47 404 47 419 b 50 504 47 459 47 481 l -2 498 b 4 583 -5 533 -4 573 b 36 593 12 588 23 591 l 59 595 b 166 834 76 695 112 776 b 427 940 241 915 333 940 b 618 870 543 940 605 895 b 598 801 618 840 609 816 l 593 801 b 554 813 583 800 570 806 b 444 836 519 829 481 836 "},"¢":{"x_min":101.390625,"x_max":520.828125,"ha":617,"o":"m 420 836 b 370 833 402 834 386 834 b 320 794 334 829 322 819 b 316 701 319 763 318 731 b 101 361 230 679 101 601 b 281 62 101 136 202 79 l 273 -87 b 333 -83 295 -87 315 -86 b 376 -44 362 -80 375 -70 b 380 56 377 -9 379 23 b 486 87 429 59 465 73 b 494 100 491 91 494 95 b 509 184 504 115 509 144 b 386 155 475 166 430 155 b 225 372 298 155 225 194 b 391 609 225 523 277 609 b 415 606 398 609 406 608 b 461 595 431 605 447 601 b 483 591 469 593 477 591 b 505 595 491 591 500 593 b 520 658 516 616 520 648 b 415 705 509 679 468 698 b 420 836 418 750 419 791 "},"Ω":{"x_min":72.21875,"x_max":856.953125,"ha":929,"o":"m 402 1 l 408 100 b 245 458 311 131 245 250 b 462 847 245 726 333 847 l 463 847 b 684 473 588 847 684 736 b 516 97 684 244 622 123 l 523 1 l 806 1 b 856 91 838 5 852 44 b 826 101 848 95 836 100 l 668 101 l 668 108 b 816 477 747 184 816 302 b 468 950 816 775 706 950 b 111 466 237 950 111 784 b 255 108 111 297 179 183 l 255 101 l 111 101 b 72 1 90 101 80 69 l 402 1 "},"ß":{"x_min":48.609375,"x_max":663.890625,"ha":690,"o":"m 536 179 b 425 77 544 116 488 77 b 326 105 380 77 345 94 b 295 88 315 105 304 101 b 279 31 286 73 280 55 b 434 -16 294 8 351 -16 b 663 191 566 -16 663 56 b 587 358 663 261 633 313 b 504 430 561 384 529 409 b 448 520 472 459 448 488 b 565 650 448 576 508 611 b 609 755 587 669 609 702 b 408 954 608 854 545 941 b 208 918 338 961 268 954 b 90 719 141 879 98 813 b 88 681 88 706 88 694 b 48 656 70 672 58 666 b 87 551 48 618 58 580 b 88 212 87 434 88 322 b 87 52 88 158 87 105 b 81 -4 87 19 81 1 b 130 -13 81 -5 97 -13 b 205 0 162 -13 190 -11 b 209 70 209 19 209 43 b 206 534 208 219 208 369 b 211 684 206 587 208 637 b 323 861 219 795 252 850 b 354 863 334 862 344 863 b 393 859 368 863 380 862 b 486 750 451 851 486 811 b 454 676 486 720 470 694 b 325 505 379 629 325 576 b 394 366 325 448 355 404 b 497 262 427 334 466 298 b 536 179 516 238 531 209 "},"é":{"x_min":44.4375,"x_max":515.28125,"ha":550,"o":"m 330 84 b 166 286 233 84 168 133 b 229 284 188 284 206 284 b 409 293 294 284 366 287 b 506 325 447 298 493 313 b 515 406 512 347 515 377 b 512 473 515 430 513 452 b 311 669 500 593 436 669 l 311 669 b 44 301 158 669 44 569 b 118 48 44 186 69 98 b 306 -18 172 -5 241 -18 b 412 -4 350 -18 391 -9 b 493 62 451 5 491 34 b 484 118 491 79 488 105 b 330 84 440 94 388 84 m 297 579 b 397 461 359 579 390 538 b 398 430 397 451 398 441 b 391 384 398 412 395 395 b 359 376 383 379 372 377 b 222 372 333 373 276 372 l 169 372 b 284 577 176 506 229 569 b 297 579 288 579 293 579 m 365 1012 b 215 833 345 1012 259 897 b 213 822 213 829 213 825 b 256 770 213 800 237 775 b 420 930 295 808 370 880 b 436 947 429 938 433 943 b 365 1012 436 973 395 1012 "},"s":{"x_min":38.890625,"x_max":444.4375,"ha":481,"o":"m 261 669 b 50 498 136 669 50 605 b 111 368 50 451 69 408 l 144 338 b 256 254 176 312 220 280 b 316 163 300 223 316 195 b 236 80 316 118 286 86 b 209 77 227 79 218 77 b 104 100 170 77 133 87 b 66 111 90 106 77 111 b 61 111 63 111 62 111 b 38 41 47 93 38 63 b 212 -18 52 6 126 -18 b 444 176 340 -18 444 47 b 362 327 444 234 422 280 b 222 431 320 362 256 404 b 177 502 188 458 177 479 b 272 575 177 545 215 575 b 340 562 297 575 319 570 b 404 548 363 554 384 552 b 425 611 415 563 425 593 b 301 666 419 627 384 661 b 261 669 290 668 276 669 "},"B":{"x_min":81.9375,"x_max":579.171875,"ha":617,"o":"m 81 4 b 273 -6 152 -2 202 -5 b 579 295 445 -6 579 86 b 470 490 579 415 513 463 b 412 512 454 500 436 506 b 461 540 434 520 448 530 b 529 716 494 568 529 619 b 273 923 529 833 455 923 b 120 915 218 923 159 919 b 83 909 102 913 90 912 b 81 881 81 900 81 890 b 81 869 81 877 81 873 l 81 723 l 81 4 m 204 450 b 273 452 216 452 252 452 b 440 322 363 452 427 425 b 441 293 441 312 441 304 b 277 84 441 148 368 84 b 204 91 256 84 215 88 l 204 450 m 204 826 b 268 830 212 827 251 830 b 401 719 340 830 393 797 b 402 695 402 712 402 704 b 333 550 402 615 368 566 b 286 545 316 547 301 545 b 204 541 259 544 216 544 l 204 826 "},"…":{"x_min":77.78125,"x_max":827.890625,"ha":899,"o":"m 77 69 b 150 -13 77 12 95 -13 b 231 72 215 -13 230 22 b 159 150 233 123 222 150 b 77 69 102 150 77 122 m 372 69 b 444 -13 372 12 390 -13 b 526 72 509 -13 525 22 b 454 150 527 123 516 150 b 372 69 397 150 372 122 m 673 69 b 745 -13 673 12 691 -13 b 827 72 811 -13 826 22 b 755 150 829 123 818 150 b 673 69 698 150 673 122 "},"?":{"x_min":41.671875,"x_max":406.9375,"ha":433,"o":"m 311 511 b 406 730 362 576 406 638 b 222 913 406 836 358 913 l 222 913 b 41 845 154 913 68 891 b 76 770 41 795 58 772 b 187 806 118 797 154 806 b 281 713 241 806 281 779 b 204 551 281 654 240 602 b 148 461 183 522 163 493 b 138 325 129 416 127 369 b 202 272 148 288 177 272 b 251 287 222 272 245 277 l 251 290 b 241 363 251 304 241 333 b 311 511 241 402 266 452 m 208 145 b 134 68 158 145 134 119 b 200 -12 134 12 151 -12 b 272 70 256 -12 270 22 b 208 145 273 120 263 145 "},"H":{"x_min":80.5625,"x_max":661.109375,"ha":742,"o":"m 547 -4 b 661 12 615 -4 648 -1 b 658 216 659 66 658 129 l 658 677 b 661 922 658 775 659 855 b 550 908 587 922 563 920 b 536 827 540 886 536 862 l 536 537 l 205 537 l 205 836 b 191 922 205 884 202 905 b 80 905 123 922 94 919 b 83 698 81 852 83 784 l 83 241 b 80 -4 83 143 81 62 b 187 9 154 -4 176 -4 b 205 84 201 30 205 51 l 205 437 l 386 437 b 536 440 463 437 504 438 l 536 66 b 547 -4 536 37 540 15 "},"î":{"x_min":-15.28125,"x_max":305.5625,"ha":281,"o":"m 190 655 b 76 622 133 655 90 651 b 79 479 77 586 79 543 l 79 233 b 77 -4 79 148 77 66 b 184 11 155 -2 175 -2 b 201 84 197 30 201 52 l 201 556 b 190 655 201 615 200 636 m 155 1012 b 122 1004 147 1012 134 1009 b 94 979 112 998 104 990 b -15 812 54 922 5 856 b 38 777 -6 798 16 786 b 65 800 43 777 55 787 b 137 905 90 833 113 865 b 220 793 152 879 191 827 b 247 776 230 781 238 776 b 305 823 268 776 293 804 b 155 1012 273 876 190 975 "},"c":{"x_min":44.4375,"x_max":484.71875,"ha":511,"o":"m 484 613 b 336 669 479 631 418 669 b 145 601 269 669 200 652 b 44 313 91 551 44 461 b 322 -19 44 36 172 -19 b 444 11 372 -19 418 -6 b 475 66 461 23 473 47 b 466 105 475 76 470 91 b 347 79 437 91 393 79 b 169 320 256 79 169 120 b 319 570 169 487 231 563 b 338 572 326 572 331 572 b 422 554 366 572 397 565 b 459 545 436 550 450 545 b 466 545 462 545 465 545 b 484 613 477 565 484 595 "},"¶":{"x_min":55.5625,"x_max":616.671875,"ha":694,"o":"m 463 -87 b 556 177 526 -26 552 51 b 558 311 556 218 558 262 l 558 831 b 583 841 568 833 576 836 l 609 863 b 616 880 613 868 616 875 b 605 890 616 886 611 890 l 552 890 l 370 890 b 55 577 202 890 55 786 b 302 300 55 397 161 300 b 481 329 366 305 423 318 l 481 219 b 356 -54 481 62 440 -23 b 275 -69 329 -63 304 -69 b 216 -61 258 -69 238 -66 b 225 -94 218 -69 220 -81 b 251 -118 229 -106 238 -115 b 463 -87 318 -131 388 -144 "},"−":{"x_min":66.671875,"x_max":626.390625,"ha":693,"o":"m 66 320 l 591 320 b 626 415 620 320 625 352 l 100 415 b 66 320 73 415 68 386 "},"≠":{"x_min":66.671875,"x_max":626.390625,"ha":693,"o":"m 327 286 l 441 455 l 441 455 l 591 455 b 626 548 620 455 625 486 l 502 548 l 598 693 l 550 693 b 518 675 537 693 526 686 l 436 548 l 101 548 b 66 455 73 548 68 520 l 375 455 l 375 455 l 261 286 l 258 281 l 101 281 b 66 188 73 281 68 252 l 197 188 l 94 33 l 111 33 b 186 73 141 33 169 48 l 262 188 l 591 188 b 626 281 620 188 625 219 l 325 281 l 327 286 "},"•":{"x_min":66.671875,"x_max":282.015625,"ha":343,"o":"m 66 363 b 168 248 66 284 93 248 b 281 368 258 248 279 298 b 180 476 283 438 268 476 b 66 363 101 476 66 437 "},"¥":{"x_min":15.28125,"x_max":620.828125,"ha":617,"o":"m 259 405 l 145 393 b 113 384 133 391 122 390 b 106 300 105 373 104 334 l 259 315 l 259 56 b 270 -5 259 31 262 13 b 384 13 354 -5 372 -1 b 383 191 384 56 383 113 l 383 327 l 506 340 b 538 433 540 343 543 383 l 388 418 b 402 463 390 430 397 452 b 605 850 436 543 566 755 b 620 900 613 869 620 883 b 618 916 620 902 619 911 b 552 920 586 919 566 920 b 509 912 536 920 525 918 l 327 520 b 150 912 300 579 186 834 l 80 912 b 15 902 25 912 15 909 l 16 900 b 183 575 63 802 131 679 b 256 415 218 508 241 455 l 256 415 b 259 405 258 412 258 408 "},"(":{"x_min":84.71875,"x_max":386.109375,"ha":433,"o":"m 195 405 b 386 973 195 652 275 845 b 331 1047 380 1012 361 1041 b 84 391 240 980 84 765 l 84 390 b 323 -259 84 -4 258 -227 b 386 -184 352 -259 376 -229 b 195 405 280 -79 195 134 "},"U":{"x_min":76.390625,"x_max":687.5,"ha":767,"o":"m 388 79 b 213 279 279 79 234 156 b 204 433 206 325 204 375 l 204 818 b 190 922 204 873 202 900 b 76 904 120 922 87 918 b 79 686 77 847 79 776 l 79 422 b 86 275 79 369 81 320 b 380 -20 105 104 168 -20 b 647 65 488 -20 593 0 b 684 440 672 169 684 290 l 684 661 b 687 922 684 763 686 850 b 581 906 615 922 602 920 b 568 820 573 883 568 856 l 566 440 b 538 109 566 325 558 204 b 388 79 516 95 479 79 "},"◊":{"x_min":61.109375,"x_max":577.78125,"ha":639,"o":"m 565 308 b 577 358 573 322 577 338 l 577 358 b 552 452 577 391 569 423 b 376 715 500 545 440 631 l 320 720 b 234 679 286 720 254 705 b 80 443 179 601 127 522 b 61 369 68 420 61 394 b 81 295 61 343 68 318 b 259 30 137 204 194 118 l 318 20 b 404 62 352 20 384 37 b 565 308 462 143 515 225 m 469 393 b 469 348 477 379 477 362 l 322 90 l 170 351 b 170 395 162 365 162 381 l 319 651 l 469 393 "},"Ñ":{"x_min":66.671875,"x_max":688.890625,"ha":774,"o":"m 406 551 b 331 683 380 597 356 640 b 204 909 280 770 234 851 b 162 922 190 918 175 922 b 68 911 140 922 81 919 b 66 898 66 906 66 898 b 83 875 66 895 77 881 l 83 281 b 80 -4 83 170 81 76 b 187 13 154 -4 172 -2 b 200 88 195 33 200 52 l 200 416 b 190 718 198 495 195 613 b 223 645 202 690 209 676 b 313 452 252 583 284 512 l 370 348 b 569 -1 441 223 511 105 b 626 -8 583 -6 613 -8 b 686 13 652 -8 681 11 l 686 634 b 688 922 686 744 687 840 b 583 906 615 922 606 922 b 570 831 575 887 570 866 l 570 491 b 577 245 570 415 573 309 b 579 216 579 236 579 226 l 579 205 b 454 466 548 277 501 376 l 406 551 m 322 1083 b 358 1063 336 1083 344 1077 b 445 1006 384 1037 400 1006 b 572 1131 516 1006 563 1075 b 525 1173 568 1138 543 1173 b 508 1159 516 1173 512 1169 b 455 1105 498 1126 484 1105 b 419 1127 443 1105 431 1115 b 334 1180 393 1152 373 1180 b 198 1050 266 1180 226 1131 b 255 1015 202 1045 231 1015 b 270 1030 262 1015 266 1022 b 322 1083 283 1059 301 1079 "},"F":{"x_min":80.5625,"x_max":501.390625,"ha":521,"o":"m 141 -4 b 208 12 172 -4 198 8 b 205 423 206 140 205 272 l 415 423 b 470 522 450 423 465 436 l 205 522 l 205 823 l 383 823 b 469 829 425 823 450 823 b 501 919 488 836 495 851 l 155 919 b 80 898 120 918 93 902 b 83 745 81 854 83 806 l 83 6 b 141 -4 98 -1 118 -4 "},":":{"x_min":51.390625,"x_max":205.671875,"ha":254,"o":"m 51 519 b 125 436 51 462 70 436 b 205 522 187 436 204 472 b 133 600 206 573 195 600 b 51 519 77 600 51 572 m 51 69 b 125 -13 51 12 70 -13 b 205 72 187 -13 204 22 b 133 150 206 123 195 150 b 51 69 77 150 51 122 "},"Û":{"x_min":76.390625,"x_max":687.5,"ha":767,"o":"m 388 79 b 213 279 279 79 234 156 b 204 433 206 325 204 375 l 204 818 b 190 922 204 873 202 900 b 76 904 120 922 87 918 b 79 686 77 847 79 776 l 79 422 b 86 275 79 369 81 320 b 380 -20 105 104 168 -20 b 647 65 488 -20 593 0 b 684 440 672 169 684 290 l 684 661 b 687 922 684 763 686 850 b 581 906 615 922 602 920 b 568 820 573 883 568 856 l 566 440 b 538 109 566 325 558 204 b 388 79 516 95 479 79 m 395 1204 b 355 1188 386 1204 362 1200 b 216 1041 312 1145 243 1072 b 269 1000 222 1026 244 1006 b 276 1001 269 1000 272 1000 b 287 1008 280 1002 286 1006 b 381 1101 311 1026 347 1059 b 475 1011 401 1083 445 1034 b 505 998 484 1002 495 998 b 559 1052 525 998 551 1029 b 395 1204 520 1090 433 1177 "},"*":{"x_min":69.484375,"x_max":577.65625,"ha":625,"o":"m 352 729 l 376 915 b 281 904 340 931 279 940 l 308 711 b 352 729 343 702 348 711 m 537 780 l 362 697 b 391 661 365 662 375 658 l 576 695 b 537 780 581 734 569 795 m 363 641 b 338 601 331 627 331 618 l 430 436 b 498 501 468 444 522 475 l 363 641 m 266 633 l 137 495 b 220 451 156 462 202 420 l 312 622 b 266 633 290 648 280 645 m 275 712 l 104 791 b 86 700 77 763 51 706 l 277 665 b 275 712 295 695 290 702 "},"†":{"x_min":55.5625,"x_max":643.0625,"ha":694,"o":"m 305 825 l 291 822 b 280 809 286 820 280 816 b 280 566 280 809 280 590 b 87 566 256 566 87 566 b 75 558 81 566 77 562 b 55 466 63 533 56 501 b 55 466 55 466 55 466 b 59 456 55 462 56 459 b 69 452 62 454 65 452 b 280 452 69 452 255 452 b 280 398 280 434 280 398 b 279 288 279 365 279 327 b 280 -20 279 206 279 102 b 298 -163 281 -70 287 -134 b 311 -172 300 -169 305 -172 b 401 -91 344 -172 381 -131 b 402 -84 402 -88 402 -87 b 405 452 405 88 405 304 b 606 454 465 452 562 452 b 619 463 612 454 618 458 b 640 533 626 481 631 502 l 643 548 b 643 552 643 550 643 551 b 640 561 643 555 641 558 b 629 566 637 563 633 566 b 405 566 629 566 430 566 b 406 666 405 600 406 633 b 408 780 406 704 406 741 b 408 780 408 780 408 780 b 401 829 408 801 408 816 b 388 836 398 833 394 836 b 305 825 365 836 330 829 "},"°":{"x_min":129.171875,"x_max":406.9375,"ha":493,"o":"m 129 895 b 266 758 129 813 191 758 b 406 897 345 758 406 818 b 269 1036 406 968 352 1036 l 268 1036 b 129 895 187 1036 129 972 m 198 897 b 268 972 198 936 226 972 b 338 895 312 972 338 934 b 269 822 338 856 311 822 b 198 897 229 822 198 854 "},"V":{"x_min":18.0625,"x_max":690.28125,"ha":682,"o":"m 363 -9 b 426 13 391 -6 405 0 b 601 572 461 93 537 343 b 677 836 637 691 659 776 b 690 897 683 862 690 883 b 684 915 690 906 688 913 b 615 920 661 918 640 919 b 602 920 611 920 606 920 b 577 918 595 920 587 920 b 561 872 570 904 566 890 b 504 676 544 815 526 756 b 429 405 480 591 454 497 b 361 140 402 301 377 212 b 295 402 344 223 319 306 b 175 822 250 561 208 701 b 134 922 154 883 148 906 b 61 918 111 922 86 920 b 18 890 33 915 23 906 b 131 519 33 854 75 712 b 272 51 180 359 240 158 b 284 23 276 38 280 30 b 363 -9 284 23 325 -12 "},"å":{"x_min":33.328125,"x_max":506.9375,"ha":549,"o":"m 79 572 b 100 516 81 555 87 530 b 140 527 111 516 125 520 b 286 563 180 544 237 563 b 352 466 345 563 352 529 l 352 387 b 306 391 340 390 325 391 b 268 390 294 391 281 391 b 33 168 184 381 33 338 b 206 -15 33 40 118 -15 b 308 2 244 -15 277 -12 b 348 34 323 11 340 26 b 431 -15 362 15 398 -15 b 505 16 468 -13 494 1 b 506 68 505 25 505 48 b 468 131 462 59 468 131 l 468 131 b 470 412 468 205 470 316 l 470 475 b 334 668 470 593 437 661 b 286 669 311 669 308 669 b 80 602 193 666 109 630 b 77 587 79 598 77 593 b 79 572 77 581 77 576 m 350 143 b 345 123 348 134 347 126 b 238 80 326 100 280 80 l 229 80 b 155 179 186 83 155 108 b 279 306 155 266 212 295 b 325 309 293 308 308 309 b 352 308 334 309 344 309 l 352 209 b 350 143 352 180 352 159 m 129 895 b 266 758 129 813 191 758 b 406 897 345 758 406 818 b 269 1036 406 968 352 1036 l 268 1036 b 129 895 187 1036 129 972 m 198 897 b 268 972 198 936 226 972 b 338 895 312 972 338 934 b 269 822 338 856 311 822 b 198 897 229 822 198 854 "},"0":{"x_min":41.671875,"x_max":575,"ha":617,"o":"m 41 409 b 304 -19 41 106 138 -19 b 575 427 488 -19 575 131 b 312 834 575 634 525 834 b 169 786 256 834 206 816 b 41 409 91 730 41 609 m 168 405 b 313 740 168 647 229 740 l 315 740 b 450 433 394 740 450 665 b 308 76 450 152 386 76 b 168 405 225 76 168 156 "},"”":{"x_min":45.828125,"x_max":429.171875,"ha":475,"o":"m 293 961 b 301 908 295 943 297 923 b 311 900 304 904 306 901 b 262 716 309 838 293 773 b 304 701 272 705 288 701 b 347 727 319 704 333 712 b 427 919 381 765 422 847 b 429 936 429 925 429 930 b 386 1009 429 976 415 1005 b 372 1011 381 1011 376 1011 b 355 1009 366 1011 361 1011 b 293 961 323 1006 300 986 m 76 961 b 86 908 79 943 80 923 b 95 900 87 904 91 901 b 45 716 94 838 77 773 b 87 701 55 705 72 701 b 130 727 104 704 116 712 b 211 919 165 766 205 847 b 212 936 212 925 212 930 b 169 1009 212 976 200 1005 b 152 1012 165 1011 159 1012 b 76 961 119 1012 87 988 "},"@":{"x_min":62.21875,"x_max":959.71875,"ha":1018,"o":"m 776 -76 b 681 -91 750 -73 716 -81 b 501 -119 630 -104 575 -116 b 169 298 287 -119 169 -6 b 558 762 169 612 315 762 b 852 433 751 762 852 662 l 852 433 b 711 118 852 191 768 118 b 679 133 698 118 687 126 b 681 243 680 162 681 200 b 684 327 683 270 683 300 b 686 402 684 352 684 377 b 683 486 686 431 686 459 b 663 562 680 519 675 543 b 530 625 640 606 595 625 b 363 570 455 625 387 594 b 361 558 362 568 361 563 b 362 545 361 554 362 551 b 379 501 365 533 369 512 b 412 509 388 501 400 504 b 506 533 441 525 473 533 b 586 422 570 536 591 491 b 584 391 584 413 584 395 b 544 395 573 394 559 395 b 520 394 536 395 529 394 b 395 347 486 391 436 377 b 325 186 350 311 325 259 b 477 19 327 50 395 22 b 622 63 550 19 600 45 b 709 26 638 40 670 26 b 959 443 826 26 959 119 b 556 852 959 719 808 852 b 65 347 275 852 83 679 b 62 304 63 333 62 318 b 737 -175 51 -188 369 -293 b 797 -138 758 -168 776 -154 b 776 -76 795 -118 787 -93 m 473 108 b 429 161 458 112 433 123 b 427 180 429 168 427 173 b 584 318 427 290 488 318 l 581 175 b 509 109 575 137 545 115 b 473 108 497 108 483 106 "},"ö":{"x_min":41.671875,"x_max":577.78125,"ha":624,"o":"m 577 330 b 313 669 577 554 488 669 b 41 322 154 669 41 561 l 41 322 b 309 -19 41 81 137 -19 b 577 330 463 -19 577 98 m 170 327 b 309 576 170 508 236 576 l 312 576 b 450 326 395 576 450 508 b 312 70 450 134 386 70 b 170 327 230 70 170 136 m 134 861 b 195 786 134 809 151 786 b 263 863 248 786 262 818 b 204 933 265 909 255 933 b 134 861 156 933 134 908 m 352 861 b 413 786 352 809 369 786 b 481 863 466 786 480 818 b 422 933 483 909 473 933 b 352 861 375 933 352 908 "},"i":{"x_min":72.21875,"x_max":209.84375,"ha":281,"o":"m 190 655 b 76 622 133 655 90 651 b 79 479 77 586 79 543 l 79 233 b 77 -4 79 148 77 66 b 184 11 155 -2 175 -2 b 201 84 197 30 201 52 l 201 556 b 190 655 201 615 200 636 m 72 891 b 137 811 72 836 88 811 b 209 894 194 811 208 845 b 145 969 211 944 201 969 b 72 891 95 969 72 943 "},"≤":{"x_min":48.609375,"x_max":355.5625,"ha":406,"o":"m 84 215 b 48 119 65 215 55 184 b 80 113 59 116 69 113 b 305 136 145 113 243 126 b 355 233 337 140 351 181 b 325 243 347 237 334 241 b 84 215 261 234 161 222 m 302 616 b 276 640 297 629 288 638 b 247 629 268 641 259 638 b 68 491 227 611 68 491 b 55 445 59 481 55 466 b 77 408 55 429 66 418 l 248 280 b 279 270 259 272 269 269 b 302 290 287 272 295 279 b 318 358 312 305 318 343 b 181 455 318 358 195 445 b 318 556 195 465 318 556 b 302 616 318 570 311 600 "},"Õ":{"x_min":44.4375,"x_max":750,"ha":794,"o":"m 179 450 b 400 81 179 201 270 81 b 618 463 536 81 618 201 b 397 837 618 726 522 837 l 395 837 b 179 450 266 837 179 718 m 401 940 b 750 468 640 940 750 765 b 393 -20 750 158 633 -20 b 44 456 143 -20 44 162 b 401 940 44 775 170 940 m 330 1083 b 366 1063 344 1083 352 1077 b 454 1006 393 1037 408 1006 b 580 1131 525 1006 572 1075 b 533 1173 576 1138 551 1173 b 516 1159 525 1173 520 1169 b 463 1105 506 1126 493 1105 b 427 1127 451 1105 440 1115 b 343 1180 401 1152 381 1180 b 206 1050 275 1180 234 1131 b 263 1015 211 1045 240 1015 b 279 1030 270 1015 275 1022 b 330 1083 291 1059 309 1079 "},"]":{"x_min":38.890625,"x_max":348.609375,"ha":497,"o":"m 179 -193 b 334 -177 230 -193 326 -183 b 341 -127 341 -166 341 -151 b 347 490 344 62 347 316 l 347 491 b 348 919 347 637 348 788 b 347 1095 348 984 348 1044 b 72 1108 291 1100 184 1108 b 45 1029 51 1102 45 1093 b 113 1019 65 1023 87 1020 b 223 1012 156 1016 193 1015 b 238 930 231 988 237 962 b 240 520 241 854 240 756 b 234 -80 240 236 236 40 b 173 -97 216 -90 197 -95 b 72 -104 145 -98 109 -101 b 38 -162 41 -105 38 -113 b 179 -193 83 -175 130 -186 "},"m":{"x_min":65.28125,"x_max":870.828125,"ha":943,"o":"m 536 19 l 536 345 l 536 509 b 654 568 565 541 605 568 b 747 420 725 568 747 529 l 747 40 b 756 -4 747 20 751 6 b 870 12 834 -4 854 0 b 868 194 868 62 868 125 l 868 427 b 716 666 868 566 838 656 b 688 668 708 668 698 668 b 604 654 659 668 633 663 b 504 598 572 644 537 626 b 381 668 480 638 444 663 b 356 669 373 669 363 669 b 269 655 325 669 298 665 b 173 601 240 645 206 629 b 130 643 168 625 156 643 b 120 641 129 643 125 643 b 65 609 90 627 72 618 b 81 505 75 581 81 550 l 81 256 b 80 -4 81 152 81 66 b 187 9 154 -4 169 -4 b 201 61 198 23 201 37 l 201 511 b 322 569 230 543 270 569 b 415 422 391 569 415 530 l 415 255 b 412 -4 415 151 415 66 l 469 -4 b 518 -2 493 -4 508 -4 b 536 19 529 0 536 5 "},"8":{"x_min":45.828125,"x_max":570.828125,"ha":617,"o":"m 475 422 b 401 476 454 440 429 458 b 502 565 445 506 479 533 b 547 695 527 598 547 640 b 347 906 547 806 483 897 b 308 908 334 906 322 908 b 69 676 166 908 69 816 b 113 552 69 631 84 587 b 211 470 137 525 169 495 b 90 365 158 437 118 401 b 45 226 62 327 45 283 b 309 -13 45 112 111 -13 b 570 230 477 -13 570 93 b 475 422 570 313 536 370 m 186 690 b 313 812 186 773 248 812 b 438 690 381 812 438 772 b 323 527 438 623 390 570 b 234 590 284 550 254 570 b 186 690 201 620 186 648 m 309 81 b 159 233 226 81 159 137 b 294 416 159 311 220 372 b 397 344 338 391 375 366 b 451 223 434 309 451 281 b 309 81 451 129 381 81 "},"ž":{"x_min":36.109375,"x_max":493.0625,"ha":525,"o":"m 77 658 b 47 575 61 654 52 627 b 47 572 47 573 47 573 b 119 558 47 562 70 558 b 180 559 138 558 158 559 l 329 559 b 48 79 247 406 126 209 b 36 45 41 66 37 56 b 55 2 38 22 51 8 b 309 -1 123 -1 222 -1 b 461 5 391 -1 430 0 b 488 55 475 9 484 25 b 493 102 491 70 493 88 b 344 93 481 100 422 93 b 193 95 290 93 233 94 b 455 565 294 270 401 456 b 470 616 468 590 472 605 b 468 647 470 630 468 638 b 468 651 468 648 468 650 l 198 651 b 77 658 147 651 111 651 m 247 748 b 280 756 256 748 268 752 b 308 781 291 762 300 770 b 418 948 348 838 397 904 b 363 983 409 962 386 975 b 337 961 361 983 350 973 b 265 855 313 927 288 895 b 183 968 251 881 212 933 b 155 984 173 979 163 984 b 98 937 136 984 109 956 b 247 748 130 884 213 786 "},"R":{"x_min":79.171875,"x_max":647.9375,"ha":629,"o":"m 645 16 b 415 409 605 55 516 261 l 415 409 b 548 659 440 423 548 533 b 304 920 548 834 465 912 l 268 922 b 200 922 245 923 223 922 b 140 919 179 922 161 920 b 111 915 127 918 120 916 b 81 906 95 912 87 911 b 80 880 80 897 80 887 b 81 750 81 841 81 800 l 81 280 b 79 -4 81 170 80 77 b 190 11 147 -4 176 -5 b 204 63 200 25 204 40 l 204 377 l 265 377 b 288 375 275 377 281 376 b 462 94 361 293 425 176 b 556 -8 481 50 506 -4 b 575 -8 562 -8 568 -8 b 645 16 575 -8 662 -5 m 331 477 b 273 472 319 472 295 472 b 204 473 248 472 215 472 l 204 827 b 277 831 218 829 244 831 b 418 662 361 831 418 775 b 331 477 418 551 376 494 "},"á":{"x_min":33.328125,"x_max":506.9375,"ha":549,"o":"m 79 572 b 100 516 81 555 87 530 b 140 527 111 516 125 520 b 286 563 180 544 237 563 b 352 466 345 563 352 529 l 352 387 b 306 391 340 390 325 391 b 268 390 294 391 281 391 b 33 168 184 381 33 338 b 206 -15 33 40 118 -15 b 308 2 244 -15 277 -12 b 348 34 323 11 340 26 b 431 -15 362 15 398 -15 b 505 16 468 -13 494 1 b 506 68 505 25 505 48 b 468 131 462 59 468 131 l 468 131 b 470 412 468 205 470 316 l 470 475 b 334 668 470 593 437 661 b 286 669 311 669 308 669 b 80 602 193 666 109 630 b 77 587 79 598 77 593 b 79 572 77 581 77 576 m 350 143 b 345 123 348 134 347 126 b 238 80 326 100 280 80 l 229 80 b 155 179 186 83 155 108 b 279 306 155 266 212 295 b 325 309 293 308 308 309 b 352 308 334 309 344 309 l 352 209 b 350 143 352 180 352 159 m 345 1013 b 195 834 326 1013 240 898 b 194 823 194 830 194 826 b 237 772 194 801 218 776 b 401 931 276 809 351 881 b 416 948 409 940 413 944 b 345 1013 416 975 376 1013 "},"×":{"x_min":106.9375,"x_max":588.890625,"ha":693,"o":"m 276 365 b 109 187 220 306 165 247 b 126 144 111 172 115 158 b 175 113 145 122 159 113 b 341 294 230 175 286 234 b 511 113 398 234 455 175 b 561 143 526 113 543 122 b 584 175 570 152 577 162 b 563 204 579 184 572 195 b 409 365 512 258 461 311 b 588 555 469 429 529 491 b 547 601 580 568 561 588 b 522 613 537 609 529 613 b 484 584 512 613 495 595 b 343 436 437 534 390 486 b 175 613 287 494 230 554 b 126 584 158 613 141 604 b 106 544 115 570 109 556 b 276 365 163 484 219 425 "},"o":{"x_min":38.890625,"x_max":575,"ha":615,"o":"m 575 330 b 311 669 575 554 486 669 b 38 322 151 669 38 561 l 38 322 b 306 -19 38 81 134 -19 b 575 330 461 -19 575 98 m 168 327 b 306 576 168 508 233 576 l 309 576 b 447 326 393 576 447 508 b 309 70 447 134 383 70 b 168 327 227 70 168 136 "},"5":{"x_min":66.671875,"x_max":554.171875,"ha":617,"o":"m 505 747 b 518 762 512 748 516 755 l 523 836 b 130 825 431 831 231 825 b 66 434 115 734 81 554 b 140 430 80 434 108 433 b 294 408 183 427 244 422 b 427 236 377 386 427 337 b 208 8 427 104 336 8 b 72 38 150 8 100 19 b 70 37 72 38 70 38 b 69 15 69 30 69 23 b 80 -48 69 -5 73 -27 b 225 -90 88 -65 131 -90 b 552 205 412 -88 540 20 b 554 240 554 216 554 229 b 552 290 554 256 552 273 b 343 505 538 427 450 483 b 280 515 322 509 301 512 b 184 520 238 519 206 519 b 218 727 193 594 205 663 b 505 747 304 729 454 733 "},"õ":{"x_min":41.671875,"x_max":577.78125,"ha":624,"o":"m 577 330 b 313 669 577 554 488 669 b 41 322 154 669 41 561 l 41 322 b 309 -19 41 81 137 -19 b 577 330 463 -19 577 98 m 170 327 b 309 576 170 508 236 576 l 312 576 b 450 326 395 576 450 508 b 312 70 450 134 386 70 b 170 327 230 70 170 136 m 244 858 b 280 838 258 858 266 852 b 368 781 306 812 322 781 b 494 906 438 781 486 850 b 447 948 490 913 465 948 b 430 934 438 948 434 944 b 377 880 420 901 406 880 b 341 902 365 880 354 890 b 256 955 315 927 295 955 b 120 825 188 955 148 906 b 177 790 125 820 154 790 b 193 805 184 790 188 797 b 244 858 205 834 223 854 "},"7":{"x_min":54.171875,"x_max":559.71875,"ha":586,"o":"m 93 -43 b 209 -65 88 -68 165 -66 b 533 747 259 84 469 537 b 559 833 541 773 551 804 l 193 833 b 73 843 147 833 105 834 b 54 765 62 816 54 784 b 56 751 54 759 55 754 b 187 733 87 741 127 733 b 420 736 295 733 369 734 b 93 -43 334 529 177 183 "},"K":{"x_min":79.171875,"x_max":645.828125,"ha":631,"o":"m 94 -4 b 206 11 163 -4 197 -2 b 205 186 206 55 205 108 l 205 458 b 286 376 220 448 251 415 b 462 94 359 293 425 176 b 555 -8 481 50 505 -2 b 575 -8 561 -8 568 -8 b 630 0 598 -8 620 -4 b 645 16 644 5 645 6 b 336 506 594 65 469 376 b 580 837 413 609 509 740 b 605 873 588 847 598 862 b 615 901 612 886 615 893 b 580 920 615 911 604 919 b 529 922 566 920 547 922 b 500 920 518 922 508 922 b 205 506 402 788 298 637 l 205 834 b 194 920 205 881 204 902 b 79 905 125 920 90 915 b 81 720 80 856 81 798 l 81 54 b 94 -4 81 29 84 11 "},",":{"x_min":12.5,"x_max":203.09375,"ha":254,"o":"m 202 69 b 131 151 205 130 190 151 b 51 100 97 151 63 127 b 70 27 51 83 65 47 b 83 19 72 23 76 20 b 12 -141 79 -40 50 -81 b 90 -144 33 -159 68 -159 b 202 69 150 -100 197 -8 "},"d":{"x_min":44.4375,"x_max":584.71875,"ha":632,"o":"m 545 130 b 548 409 545 204 548 313 l 548 876 b 537 981 548 938 545 962 b 426 944 480 981 440 976 b 429 809 427 911 429 870 l 429 644 b 320 669 406 658 369 669 b 136 586 254 669 187 643 b 44 302 80 523 44 429 b 284 -18 44 66 145 -11 b 386 1 322 -19 355 -13 b 426 31 401 8 418 23 b 509 -16 440 13 476 -18 b 583 15 545 -15 572 -1 b 584 66 583 22 583 47 b 545 130 540 56 545 130 m 429 206 b 427 140 429 177 429 156 b 423 120 427 133 425 123 b 322 81 404 97 363 81 b 175 316 237 81 175 138 b 340 576 175 506 258 576 b 429 550 379 576 408 568 l 429 206 "},"¨":{"x_min":76.390625,"x_max":423.734375,"ha":506,"o":"m 76 862 b 137 787 76 811 93 787 b 205 865 190 787 204 819 b 145 934 206 911 197 934 b 76 862 98 934 76 909 m 294 862 b 355 787 294 811 311 787 b 423 865 408 787 422 819 b 363 934 425 911 415 934 b 294 862 316 934 294 909 "},"Ô":{"x_min":44.4375,"x_max":750,"ha":794,"o":"m 179 450 b 400 81 179 201 270 81 b 618 463 536 81 618 201 b 397 837 618 726 522 837 l 395 837 b 179 450 266 837 179 718 m 401 940 b 750 468 640 940 750 765 b 393 -20 750 158 633 -20 b 44 456 143 -20 44 162 b 401 940 44 775 170 940 m 411 1209 b 370 1194 401 1209 377 1205 b 231 1047 327 1151 258 1077 b 284 1005 237 1031 259 1012 b 291 1006 284 1005 287 1005 b 302 1013 295 1008 301 1012 b 397 1106 326 1031 362 1065 b 490 1016 416 1088 461 1040 b 520 1004 500 1008 511 1004 b 575 1058 540 1004 566 1034 b 411 1209 536 1095 448 1183 "},"E":{"x_min":80.5625,"x_max":505.5625,"ha":532,"o":"m 205 98 l 205 437 l 409 437 b 463 537 443 437 454 450 l 205 537 l 205 820 l 329 820 b 456 826 383 820 423 820 b 487 919 476 834 483 852 l 151 919 b 80 898 119 918 95 902 b 83 725 83 843 83 786 l 83 59 b 93 2 86 40 88 22 b 295 -4 137 -1 209 -4 b 459 -1 373 -4 423 -2 b 505 95 487 5 498 25 b 504 97 505 97 504 97 b 322 94 448 94 379 94 b 205 98 277 94 233 95 "},"Y":{"x_min":15.28125,"x_max":620.828125,"ha":642,"o":"m 327 520 b 150 912 300 579 186 834 l 80 912 b 15 902 25 912 15 909 b 16 900 15 902 16 900 b 183 575 63 802 131 679 b 256 415 218 508 241 455 b 259 383 259 406 259 397 l 259 56 b 270 -5 259 31 262 13 b 384 13 354 -5 372 -1 b 383 191 384 56 383 113 l 383 394 b 402 463 386 416 394 441 b 605 850 436 543 566 755 b 620 900 613 869 620 883 b 618 916 620 902 619 911 b 552 920 586 919 566 920 b 509 912 536 920 525 918 l 327 520 "},"\"":{"x_min":45.828125,"x_max":362.5,"ha":407,"o":"m 130 722 b 162 943 143 747 159 865 l 162 954 b 144 1005 162 980 158 1001 b 125 1008 140 1006 131 1008 b 45 990 97 1008 62 1000 b 62 705 45 947 61 752 b 130 722 77 705 125 713 m 330 722 b 362 943 343 747 359 865 l 362 954 b 344 1005 362 980 358 1001 b 325 1008 340 1006 331 1008 b 245 990 297 1008 262 1000 b 262 705 245 947 261 752 b 330 722 277 705 325 713 "},"‹":{"x_min":45.828125,"x_max":326.390625,"ha":385,"o":"m 45 334 b 59 295 45 325 51 311 b 263 6 122 208 230 58 b 322 69 295 11 322 55 b 163 329 322 112 177 312 b 326 590 177 345 326 544 b 268 650 325 604 298 645 b 45 334 231 597 88 397 "},"˙":{"x_min":144.4375,"x_max":275.125,"ha":415,"o":"m 144 875 b 204 797 144 822 159 797 b 275 877 259 797 273 830 b 213 950 276 926 266 950 b 144 875 165 950 144 925 "},"ê":{"x_min":44.4375,"x_max":515.28125,"ha":550,"o":"m 330 84 b 166 286 233 84 168 133 b 229 284 188 284 206 284 b 409 293 294 284 366 287 b 506 325 447 298 493 313 b 515 406 512 347 515 377 b 512 473 515 430 513 452 b 311 669 500 593 436 669 l 311 669 b 44 301 158 669 44 569 b 118 48 44 186 69 98 b 306 -18 172 -5 241 -18 b 412 -4 350 -18 391 -9 b 493 62 451 5 491 34 b 484 118 491 79 488 105 b 330 84 440 94 388 84 m 297 579 b 397 461 359 579 390 538 b 398 430 397 451 398 441 b 391 384 398 412 395 395 b 359 376 383 379 372 377 b 222 372 333 373 276 372 l 169 372 b 284 577 176 506 229 569 b 297 579 288 579 293 579 m 305 1012 b 272 1004 297 1012 284 1009 b 244 979 262 998 254 990 b 134 812 204 922 155 856 b 188 777 143 798 166 786 b 215 800 193 777 205 787 b 287 905 240 833 263 865 b 370 793 302 879 341 827 b 397 776 380 781 388 776 b 455 823 418 776 443 804 b 305 1012 423 876 340 975 "},"Ï":{"x_min":-38.890625,"x_max":327.78125,"ha":288,"o":"m -38 1090 b 27 1020 -38 1044 -13 1020 b 95 1093 69 1020 95 1050 b 30 1162 95 1130 75 1162 l 29 1162 b -38 1090 -13 1162 -38 1130 m 193 1090 b 259 1020 193 1044 218 1020 b 327 1093 301 1020 327 1050 b 262 1162 327 1130 308 1162 b 193 1090 218 1162 193 1130 m 94 -4 b 206 12 162 -4 195 -1 b 205 143 206 26 205 66 b 204 463 205 231 204 344 b 205 830 204 586 205 720 b 193 922 205 894 204 922 b 79 890 125 922 90 918 b 81 756 80 877 81 831 b 83 461 81 673 83 566 b 81 22 83 291 81 126 b 94 -4 81 2 86 -4 "},"„":{"x_min":23.609375,"x_max":415.28125,"ha":461,"o":"m 279 83 b 295 48 279 68 283 55 b 240 -134 294 -11 275 -75 b 280 -148 252 -144 266 -148 b 312 -137 293 -148 301 -145 b 415 86 356 -102 415 0 b 362 162 415 125 398 162 b 325 156 350 162 337 161 b 311 150 319 154 315 151 b 279 83 293 143 279 116 m 59 113 b 69 56 61 95 65 77 b 79 48 72 54 75 51 b 23 -134 77 -11 59 -75 b 63 -148 36 -144 50 -148 b 77 -147 69 -148 73 -148 b 97 -137 84 -145 90 -141 b 198 86 140 -102 198 1 b 154 162 198 123 186 156 b 137 165 148 163 143 165 b 59 113 102 165 70 140 "},"Â":{"x_min":13.890625,"x_max":722.21875,"ha":739,"o":"m 584 18 b 638 -5 606 -1 622 -5 b 716 4 662 -5 700 -1 b 722 13 719 6 722 9 b 720 18 722 13 720 16 b 631 283 697 88 670 173 b 423 911 573 459 486 722 b 397 925 418 918 408 922 b 359 922 388 925 375 925 b 330 916 350 922 338 918 b 316 887 323 916 320 905 b 25 52 254 688 102 284 b 13 4 19 37 15 22 b 97 -5 38 -1 77 -5 b 140 13 127 -5 136 1 b 222 254 161 76 190 162 l 511 254 b 584 18 543 159 559 94 m 283 450 b 369 737 322 566 345 650 b 427 533 381 688 398 625 b 481 352 445 477 462 416 l 252 352 l 283 450 m 384 1205 b 344 1190 375 1205 351 1201 b 205 1043 301 1147 231 1073 b 258 1001 211 1027 233 1008 b 265 1002 258 1001 261 1001 b 276 1009 269 1004 275 1008 b 370 1102 300 1027 336 1061 b 463 1012 390 1084 434 1036 b 494 1000 473 1004 484 1000 b 548 1054 513 1000 540 1030 b 384 1205 509 1091 422 1179 "},"Í":{"x_min":51.390625,"x_max":316.671875,"ha":288,"o":"m 94 -4 b 206 12 162 -4 195 -1 b 205 143 206 26 205 66 b 204 463 205 231 204 344 b 205 830 204 586 205 720 b 193 922 205 894 204 922 b 79 890 125 922 90 918 b 81 756 80 877 81 831 b 83 461 81 673 83 566 b 81 22 83 291 81 126 b 94 -4 81 2 86 -4 m 86 994 b 297 1098 133 1015 230 1068 b 316 1120 308 1104 316 1111 b 262 1198 311 1148 288 1194 b 76 1077 238 1198 134 1129 b 51 1050 65 1068 58 1058 b 86 994 51 1041 68 1000 "},"´":{"x_min":147.21875,"x_max":369.4375,"ha":465,"o":"m 298 1006 b 148 827 279 1006 193 891 b 147 816 147 823 147 819 b 190 765 147 794 170 769 b 354 925 229 802 304 875 b 369 941 362 933 366 937 b 298 1006 369 968 329 1006 "},"ì":{"x_min":-20.828125,"x_max":201.390625,"ha":281,"o":"m 190 655 b 76 622 133 655 90 651 b 79 479 77 586 79 543 l 79 233 b 77 -4 79 148 77 66 b 184 11 155 -2 175 -2 b 201 84 197 30 201 52 l 201 556 b 190 655 201 615 200 636 m 50 1012 b 200 833 69 1012 155 897 b 201 822 201 829 201 825 b 158 770 201 800 177 775 b -5 930 119 808 44 880 b -20 947 -13 938 -18 943 b 50 1012 -20 973 19 1012 "},"±":{"x_min":41.671875,"x_max":369.4375,"ha":406,"o":"m 156 294 b 254 348 204 294 256 291 l 254 423 l 334 423 b 369 516 365 423 369 454 l 254 516 l 254 581 b 237 631 254 612 251 625 b 154 616 190 630 165 629 b 156 516 155 588 156 550 l 75 516 b 41 423 47 516 41 487 l 156 423 l 156 294 m 84 215 b 48 119 65 215 55 184 b 80 113 59 116 69 113 b 305 136 145 113 243 126 b 355 233 337 140 351 181 b 325 243 347 237 334 241 b 84 215 261 234 161 222 "},"Ú":{"x_min":76.390625,"x_max":687.5,"ha":767,"o":"m 388 79 b 213 279 279 79 234 156 b 204 433 206 325 204 375 l 204 818 b 190 922 204 873 202 900 b 76 904 120 922 87 918 b 79 686 77 847 79 776 l 79 422 b 86 275 79 369 81 320 b 380 -20 105 104 168 -20 b 647 65 488 -20 593 0 b 684 440 672 169 684 290 l 684 661 b 687 922 684 763 686 850 b 581 906 615 922 602 920 b 568 820 573 883 568 856 l 566 440 b 538 109 566 325 558 204 b 388 79 516 95 479 79 m 320 994 b 531 1098 368 1015 465 1068 b 551 1120 543 1104 551 1111 b 497 1198 545 1148 523 1194 b 311 1077 473 1198 369 1129 b 286 1050 300 1068 293 1058 b 320 994 286 1041 302 1000 "},"|":{"x_min":156.9375,"x_max":268.0625,"ha":425,"o":"m 268 1086 b 156 1070 193 1086 175 1086 l 156 -312 b 268 -298 230 -312 250 -312 l 268 1086 "},"§":{"x_min":45.828125,"x_max":618.84375,"ha":657,"o":"m 112 655 b 161 806 112 719 136 769 b 150 818 163 815 161 818 b 94 781 137 816 113 805 b 45 625 68 748 45 693 b 381 176 45 411 258 298 b 425 102 405 152 420 127 b 427 84 427 95 427 88 b 298 -12 427 20 370 -12 b 150 11 247 -12 187 -2 b 151 -76 143 -23 134 -66 b 262 -95 177 -86 222 -94 b 280 -95 269 -95 275 -95 b 416 -66 330 -95 379 -86 b 522 75 461 -45 515 -2 b 525 100 523 83 525 90 b 481 211 525 137 509 176 b 112 655 409 297 111 463 m 272 837 b 401 934 272 901 329 934 b 522 911 447 934 481 925 b 537 983 534 929 556 965 b 423 1013 518 998 479 1013 b 283 987 368 1015 320 1006 b 177 847 238 966 184 925 b 175 820 176 838 175 830 b 218 709 175 784 190 745 b 425 533 261 654 358 588 b 540 258 494 476 559 358 b 518 187 534 233 526 209 b 526 179 515 181 520 177 b 615 293 584 198 608 245 b 318 745 648 525 440 623 b 272 837 294 769 269 793 "},"Ý":{"x_min":15.28125,"x_max":620.828125,"ha":642,"o":"m 288 988 b 500 1093 336 1009 433 1062 b 519 1115 511 1098 519 1105 b 463 1193 513 1143 491 1188 b 277 1072 440 1193 337 1123 b 254 1044 268 1062 259 1052 b 254 1043 254 1044 254 1043 b 262 1019 254 1037 256 1029 b 288 988 269 1005 277 991 m 327 520 b 150 912 300 579 186 834 l 80 912 b 15 902 25 912 15 909 b 16 900 15 902 16 900 b 183 575 63 802 131 679 b 256 415 218 508 241 455 b 259 383 259 406 259 397 l 259 56 b 270 -5 259 31 262 13 b 384 13 354 -5 372 -1 b 383 191 384 56 383 113 l 383 394 b 402 463 386 416 394 441 b 605 850 436 543 566 755 b 620 900 613 869 620 883 b 618 916 620 902 619 911 b 552 920 586 919 566 920 b 509 912 536 920 525 918 l 327 520 "},"b":{"x_min":77.78125,"x_max":587.5,"ha":629,"o":"m 93 19 b 270 -18 131 -4 195 -18 b 452 33 326 -18 395 -5 b 587 380 523 86 587 188 b 361 669 587 586 488 669 b 200 618 294 669 238 645 l 200 876 b 188 981 200 938 197 962 b 77 944 131 981 91 976 b 80 809 79 911 80 870 l 80 98 b 93 19 80 66 83 41 m 200 531 b 311 570 230 558 273 570 b 456 361 402 570 456 516 b 283 73 456 136 362 73 b 200 91 250 73 218 81 l 200 531 "},"q":{"x_min":44.4375,"x_max":568.0625,"ha":633,"o":"m 551 523 b 568 627 551 568 558 600 b 319 665 490 661 404 673 b 158 590 254 656 201 630 b 44 295 88 529 44 430 b 287 -22 44 61 162 -22 b 431 30 344 -22 398 -1 l 431 -62 b 429 -288 431 -154 430 -226 b 491 -288 450 -288 470 -288 b 551 -244 543 -286 551 -279 l 551 323 l 551 287 l 551 523 m 431 130 b 325 80 411 98 366 80 b 175 301 240 80 175 141 b 345 577 175 495 262 577 b 436 562 375 576 408 572 b 431 533 433 555 431 543 l 431 130 "},"Ö":{"x_min":45.828125,"x_max":751.390625,"ha":794,"o":"m 180 450 b 401 81 180 201 272 81 b 619 463 537 81 619 201 b 398 837 619 726 523 837 l 397 837 b 180 450 268 837 180 718 m 402 940 b 751 468 641 940 751 765 b 394 -20 751 158 634 -20 b 45 456 144 -20 45 162 b 402 940 45 775 172 940 m 218 1093 b 279 1018 218 1041 234 1018 b 347 1095 331 1018 345 1050 b 287 1165 348 1141 338 1165 b 218 1093 240 1165 218 1140 m 450 1093 b 511 1018 450 1041 466 1018 b 579 1095 563 1018 577 1050 b 519 1165 580 1141 570 1165 b 450 1093 472 1165 450 1140 "},"ﬂ":{"x_min":22.21875,"x_max":587.5,"ha":635,"o":"m 429 70 b 462 1 429 43 440 16 b 512 -16 477 -8 495 -16 b 586 15 548 -15 575 -1 b 587 66 586 22 586 47 b 548 130 544 58 548 130 l 548 800 b 538 929 548 869 547 901 l 538 929 b 484 961 534 940 526 947 b 354 984 452 972 408 987 b 113 755 256 984 129 940 b 108 651 109 723 108 688 b 54 638 87 647 70 643 b 22 575 31 634 27 626 b 108 558 37 563 63 559 b 109 200 108 433 109 313 b 108 30 109 143 108 86 b 109 -1 108 18 108 6 b 140 -4 119 -2 129 -4 b 219 1 156 -4 197 -2 b 230 27 230 5 230 20 b 227 558 229 176 227 401 b 337 561 270 558 308 558 b 352 566 344 562 350 565 b 383 652 372 573 379 587 b 304 651 365 651 334 651 l 229 651 b 230 741 229 681 229 712 b 355 888 236 861 293 888 b 426 879 377 888 404 884 b 429 736 427 840 429 797 l 429 70 "},"z":{"x_min":26.390625,"x_max":483.328125,"ha":501,"o":"m 68 658 b 37 575 51 654 43 627 b 37 572 37 573 37 573 b 109 558 37 562 61 558 b 170 559 129 558 148 559 l 319 559 b 38 79 237 406 116 209 b 26 45 31 66 27 56 b 45 2 29 22 41 8 b 300 -1 113 -1 212 -1 b 451 5 381 -1 420 0 b 479 55 465 9 475 25 b 483 102 481 70 483 88 b 334 93 472 100 412 93 b 183 95 280 93 223 94 b 445 565 284 270 391 456 b 461 616 458 590 462 605 b 458 647 461 630 458 638 b 458 651 458 648 458 650 l 188 651 b 68 658 137 651 101 651 "},"™":{"x_min":40.28125,"x_max":611.109375,"ha":664,"o":"m 308 584 b 340 583 322 584 333 583 b 359 587 348 583 354 584 b 363 609 362 594 363 600 b 373 750 368 654 373 698 b 372 822 373 781 372 815 b 398 744 381 795 393 759 b 440 631 413 705 430 659 l 463 631 b 477 636 466 631 470 633 b 518 743 491 672 505 709 b 547 826 525 761 538 798 b 548 695 548 793 547 731 b 551 606 550 665 550 636 b 556 581 551 597 554 587 b 611 590 593 581 605 583 b 602 709 609 625 606 665 b 593 895 600 772 597 833 b 590 920 593 905 593 913 b 548 919 579 920 563 919 b 540 918 544 918 541 918 b 533 909 534 916 533 912 b 483 781 518 869 500 825 b 462 723 475 762 465 729 b 441 783 459 730 448 762 b 411 866 431 811 420 838 b 387 920 400 894 394 908 b 347 919 377 920 361 919 b 331 913 338 918 333 916 l 331 906 b 333 883 333 900 333 891 b 308 584 325 781 313 672 m 275 870 b 290 886 277 872 287 875 b 294 919 293 897 294 909 l 59 919 b 54 919 58 919 55 919 b 44 909 51 919 45 916 b 40 887 43 902 41 895 l 40 872 b 63 870 47 870 55 870 l 140 870 l 140 608 b 144 583 140 598 141 590 b 197 590 181 583 188 583 b 195 661 197 611 195 633 l 195 870 l 275 870 "},"ã":{"x_min":33.328125,"x_max":506.9375,"ha":551,"o":"m 79 572 b 100 516 81 555 87 530 b 140 527 111 516 125 520 b 286 563 180 544 237 563 b 352 466 345 563 352 529 l 352 387 b 306 391 340 390 325 391 b 268 390 294 391 281 391 b 33 168 184 381 33 338 b 206 -15 33 40 118 -15 b 308 2 244 -15 277 -12 b 348 34 323 11 340 26 b 431 -15 362 15 398 -15 b 505 16 468 -13 494 1 b 506 68 505 25 505 48 b 468 131 462 59 468 131 l 468 131 b 470 412 468 205 470 316 l 470 475 b 334 668 470 593 437 661 b 286 669 311 669 308 669 b 80 602 193 666 109 630 b 77 587 79 598 77 593 b 79 572 77 581 77 576 m 350 143 b 345 123 348 134 347 126 b 238 80 326 100 280 80 l 229 80 b 155 179 186 83 155 108 b 279 306 155 266 212 295 b 325 309 293 308 308 309 b 352 308 334 309 344 309 l 352 209 b 350 143 352 180 352 159 m 204 858 b 240 838 218 858 226 852 b 327 781 266 812 281 781 b 454 906 398 781 445 850 b 406 948 450 913 425 948 b 390 934 398 948 394 944 b 337 880 380 901 366 880 b 301 902 325 880 313 890 b 216 955 275 927 255 955 b 80 825 148 955 108 906 b 137 790 84 820 113 790 b 152 805 144 790 148 797 b 204 858 165 834 183 854 "},"æ":{"x_min":40.28125,"x_max":823.609375,"ha":868,"o":"m 718 295 b 813 326 754 300 800 315 b 823 441 820 356 823 401 b 619 669 820 572 758 669 b 436 579 543 669 479 643 b 286 669 413 637 365 669 b 59 601 179 669 91 630 b 55 579 56 595 55 587 b 76 518 55 556 63 536 b 122 533 90 519 105 525 b 250 568 156 550 202 568 b 350 490 308 568 343 544 b 352 440 351 475 352 458 l 352 397 b 275 401 326 401 302 401 b 40 173 144 401 40 300 b 195 -18 40 40 106 -13 b 426 61 304 -18 377 16 b 612 -18 466 6 538 -18 b 740 0 665 -18 715 -8 b 800 62 766 9 798 36 b 791 118 798 79 795 105 b 638 84 758 101 702 84 b 472 300 536 84 472 137 b 641 293 519 295 584 293 b 718 295 669 293 695 294 m 243 79 b 162 181 191 79 162 111 b 291 318 162 275 220 308 b 318 319 300 319 308 319 b 351 318 329 319 341 319 b 361 133 351 259 355 186 b 243 79 331 98 288 79 m 475 386 b 604 577 486 527 543 577 l 605 577 b 704 416 679 577 704 523 b 688 380 702 400 697 387 b 631 377 675 379 655 377 b 475 386 584 377 525 381 "},"®":{"x_min":45.828125,"x_max":504.171875,"ha":550,"o":"m 45 727 b 273 483 45 563 126 483 b 504 729 419 483 504 579 b 279 972 504 891 425 972 b 45 727 133 972 45 883 m 112 727 b 277 913 112 854 180 913 l 279 913 b 437 730 379 913 437 848 b 272 543 437 605 365 543 b 112 727 173 543 112 601 m 236 865 b 219 863 230 865 225 865 b 211 862 216 863 213 862 b 198 858 202 862 201 859 l 198 597 b 245 602 229 597 238 597 l 245 701 b 251 701 248 701 250 701 b 269 695 259 701 265 700 l 277 695 b 316 601 291 677 309 650 b 338 597 323 598 333 597 b 345 595 340 595 343 595 b 370 598 356 595 363 595 b 372 605 372 600 372 602 l 372 608 b 319 715 361 658 333 698 b 359 786 341 727 359 751 b 275 863 359 834 331 862 b 236 865 262 865 250 865 m 309 787 b 287 743 309 765 301 750 b 262 738 280 740 272 738 l 245 738 l 245 826 b 269 827 252 826 261 827 b 309 787 295 827 309 811 "},"É":{"x_min":80.5625,"x_max":505.5625,"ha":535,"o":"m 205 98 l 205 437 l 409 437 b 463 537 443 437 454 450 l 205 537 l 205 820 l 329 820 b 456 826 383 820 423 820 b 487 919 476 834 483 852 l 151 919 b 80 898 119 918 95 902 b 83 725 83 843 83 786 l 83 59 b 93 2 86 40 88 22 b 295 -4 137 -1 209 -4 b 459 -1 373 -4 423 -2 b 505 95 487 5 498 25 b 504 97 505 97 504 97 b 322 94 448 94 379 94 b 205 98 277 94 233 95 m 252 994 b 463 1098 300 1015 397 1068 b 483 1120 475 1104 483 1111 b 429 1198 477 1148 455 1194 b 243 1077 405 1198 301 1129 b 218 1050 231 1068 225 1058 b 252 994 218 1041 234 1000 "},"~":{"x_min":34.71875,"x_max":661.109375,"ha":694,"o":"m 86 259 b 120 270 100 259 112 262 b 209 415 138 393 172 415 b 301 366 236 415 262 400 b 501 255 366 312 433 255 b 661 480 580 255 641 305 b 588 501 645 491 608 501 b 575 459 583 490 577 477 b 495 345 566 388 543 345 b 368 425 454 345 412 386 b 202 504 320 469 268 501 b 34 269 141 504 62 472 b 86 259 47 263 61 261 "},"¡":{"x_min":59.71875,"x_max":208.328125,"ha":268,"o":"m 183 370 b 84 319 134 370 88 358 b 59 -173 79 212 62 -55 b 73 -255 59 -209 65 -234 b 206 -222 154 -255 205 -247 b 183 370 202 -65 188 234 m 134 509 b 208 587 184 509 208 536 b 143 668 208 643 191 668 b 70 584 86 668 72 633 b 134 509 69 534 79 509 "},"[":{"x_min":148.609375,"x_max":458.328125,"ha":497,"o":"m 318 1108 b 162 1093 266 1108 170 1098 b 155 1043 155 1080 155 1065 b 150 423 152 852 150 597 b 148 -4 150 277 148 126 b 150 -180 148 -69 148 -129 b 425 -193 206 -184 312 -193 b 451 -113 445 -187 451 -177 b 383 -104 431 -108 409 -105 b 273 -97 338 -101 304 -100 b 258 -15 265 -73 259 -47 b 256 394 256 61 256 156 b 261 995 256 679 262 873 b 323 1012 280 1005 300 1009 b 425 1019 351 1015 387 1016 b 458 1077 455 1022 458 1027 b 318 1108 413 1088 366 1101 "},"L":{"x_min":79.171875,"x_max":502.78125,"ha":524,"o":"m 194 922 b 79 900 119 922 93 918 b 81 752 80 866 81 818 l 81 75 b 93 2 86 51 88 26 b 320 -4 147 -1 227 -4 b 458 -1 388 -4 430 -2 b 502 56 486 5 498 33 b 501 100 502 72 502 84 b 338 95 452 95 390 95 b 205 101 290 95 240 97 l 205 822 b 194 922 205 876 202 901 "}," ":{"x_min":0,"x_max":0,"ha":315},"∑":{"x_min":52.78125,"x_max":505.5625,"ha":532,"o":"m 504 97 b 322 94 448 94 379 94 b 177 98 277 94 205 95 l 441 493 l 177 820 l 329 820 b 456 826 383 820 423 820 b 487 919 476 834 483 852 l 123 919 b 52 898 91 918 68 902 b 54 822 54 873 54 847 l 319 493 l 55 98 l 55 59 b 65 2 58 40 61 22 b 268 -4 109 -1 181 -4 b 459 -1 345 -4 423 -2 b 505 95 487 5 498 25 b 504 97 505 97 504 97 "},"%":{"x_min":61.109375,"x_max":911.109375,"ha":972,"o":"m 61 669 b 248 426 61 483 134 426 b 438 672 375 426 438 525 b 255 912 438 855 365 912 l 254 912 b 61 669 125 912 61 808 m 533 225 b 722 -15 533 34 611 -15 b 911 227 847 -15 911 80 b 729 470 911 409 840 470 l 727 470 b 533 225 598 470 533 366 m 225 -40 b 254 -6 231 -40 240 -30 b 788 884 426 269 729 780 b 756 920 786 900 773 909 b 733 931 745 927 736 931 b 713 908 730 931 723 925 b 172 2 580 688 241 130 b 225 -40 173 -15 220 -38 m 633 223 b 725 390 633 334 668 390 b 812 226 781 390 812 345 b 722 61 812 112 775 61 b 633 223 662 61 633 111 m 162 668 b 252 834 162 780 198 834 l 254 834 b 340 672 308 834 340 790 b 250 505 340 558 304 505 b 162 668 193 505 162 555 "},"P":{"x_min":77.78125,"x_max":559.71875,"ha":588,"o":"m 81 280 b 79 -4 81 169 80 76 b 190 9 147 -4 175 -6 b 204 63 200 23 204 38 l 202 218 l 202 479 l 202 831 b 272 834 218 834 240 834 b 426 654 355 834 426 788 b 279 444 426 494 345 444 b 258 430 268 444 258 437 b 331 372 258 375 301 372 b 559 648 425 383 559 448 b 261 934 559 854 447 934 b 118 930 211 934 161 933 l 113 930 b 77 920 97 929 84 925 b 79 880 77 906 79 891 l 81 280 "},"À":{"x_min":13.890625,"x_max":722.21875,"ha":739,"o":"m 411 1025 b 448 1079 423 1029 448 1066 b 448 1080 448 1080 448 1080 b 430 1102 445 1087 438 1094 b 251 1233 379 1152 269 1233 b 229 1209 241 1233 233 1222 b 195 1176 216 1209 201 1190 b 190 1151 191 1168 190 1159 b 205 1138 193 1147 198 1143 b 411 1025 272 1104 379 1038 m 584 18 b 638 -5 606 -1 622 -5 b 716 4 662 -5 700 -1 b 722 13 719 6 722 9 b 720 18 722 13 720 16 b 631 283 697 88 670 173 b 423 911 573 459 486 722 b 397 925 418 918 408 922 b 359 922 388 925 375 925 b 330 916 350 922 338 918 b 316 887 323 916 320 905 b 25 52 254 688 102 284 b 13 4 19 37 15 22 b 97 -5 38 -1 77 -5 b 140 13 127 -5 136 1 b 222 254 161 76 190 162 l 511 254 b 584 18 543 159 559 94 m 283 450 b 369 737 322 566 345 650 b 427 533 381 688 398 625 b 481 352 445 477 462 416 l 252 352 l 283 450 "},"_":{"x_min":9.71875,"x_max":600,"ha":610,"o":"m 587 -136 b 600 -51 600 -123 600 -98 l 20 -51 b 9 -136 9 -63 9 -88 l 587 -136 "},"ñ":{"x_min":65.28125,"x_max":555.5625,"ha":628,"o":"m 320 566 b 430 420 404 566 430 527 l 430 52 b 441 -4 430 30 433 11 b 555 12 520 -4 541 0 b 552 211 554 68 552 134 l 552 423 b 355 668 552 580 520 668 b 269 652 325 668 298 662 b 173 598 238 643 206 626 b 130 640 168 622 155 640 b 120 638 129 640 125 640 b 65 606 90 625 72 615 b 81 502 75 579 81 547 l 81 266 b 79 -4 81 159 80 70 l 79 -4 b 186 9 154 -2 169 -4 b 201 75 198 27 201 45 l 201 508 b 320 566 230 540 270 566 m 247 858 b 283 838 261 858 269 852 b 370 781 309 812 325 781 b 497 906 441 781 488 850 b 450 948 493 913 468 948 b 433 934 441 948 437 944 b 380 880 423 901 409 880 b 344 902 368 880 356 890 b 259 955 318 927 298 955 b 123 825 191 955 151 906 b 180 790 127 820 156 790 b 195 805 187 790 191 797 b 247 858 208 834 226 854 "},"+":{"x_min":66.671875,"x_max":625,"ha":693,"o":"m 394 133 l 394 323 l 590 323 b 625 416 620 323 625 354 l 394 416 l 394 597 b 377 647 394 627 391 640 b 294 631 330 645 305 644 b 297 531 295 604 297 565 l 297 416 l 100 416 b 66 323 72 416 66 387 l 297 323 l 297 79 b 394 133 344 79 397 76 "},"‚":{"x_min":20.828125,"x_max":198.609375,"ha":244,"o":"m 59 113 b 69 56 61 95 63 77 b 79 48 70 52 75 50 b 20 -136 77 -11 58 -76 b 62 -150 33 -145 48 -150 b 76 -148 68 -150 72 -150 b 95 -138 83 -147 88 -143 b 198 84 138 -104 198 0 b 155 162 198 123 186 156 b 137 165 150 163 144 165 b 59 113 102 165 70 140 "},"Æ":{"x_min":20.828125,"x_max":952.78125,"ha":976,"o":"m 651 98 b 636 431 647 209 641 320 l 843 431 b 893 530 875 431 886 452 l 631 530 b 618 820 627 627 622 723 l 770 820 b 887 827 818 820 858 823 b 912 919 904 836 911 856 l 508 919 b 425 902 479 918 441 911 b 400 843 418 883 409 865 b 20 11 297 619 119 226 b 58 -2 34 5 50 0 b 104 -9 72 -6 84 -9 b 144 12 133 -9 138 0 b 281 319 169 69 202 145 l 516 319 b 531 56 520 231 526 144 b 541 2 534 38 538 20 b 751 -4 587 0 658 -4 b 906 -1 820 -4 870 -2 b 952 95 936 5 948 25 l 951 97 b 776 94 905 94 834 94 b 651 98 726 94 681 95 m 425 644 b 498 811 452 711 479 769 l 511 415 l 320 415 b 425 644 351 484 383 556 "},"Ë":{"x_min":80.5625,"x_max":505.5625,"ha":535,"o":"m 205 98 l 205 437 l 409 437 b 463 537 443 437 454 450 l 205 537 l 205 820 l 329 820 b 456 826 383 820 423 820 b 487 919 476 834 483 852 l 151 919 b 80 898 119 918 95 902 b 83 725 83 843 83 786 l 83 59 b 93 2 86 40 88 22 b 295 -4 137 -1 209 -4 b 459 -1 373 -4 423 -2 b 505 95 487 5 498 25 b 504 97 505 97 504 97 b 322 94 448 94 379 94 b 205 98 277 94 233 95 m 104 1093 b 165 1018 104 1041 120 1018 b 233 1095 218 1018 231 1050 b 173 1165 234 1141 225 1165 b 104 1093 126 1165 104 1140 m 336 1093 b 397 1018 336 1041 352 1018 b 465 1095 450 1018 463 1050 b 405 1165 466 1141 456 1165 b 336 1093 358 1165 336 1140 "},"'":{"x_min":45.828125,"x_max":162.5,"ha":208,"o":"m 130 722 b 162 943 143 747 159 865 l 162 954 b 144 1005 162 980 158 1001 b 125 1008 140 1006 131 1008 b 45 990 97 1008 62 1000 b 62 705 45 947 61 752 b 130 722 77 705 125 713 "},"Š":{"x_min":38.890625,"x_max":502.78125,"ha":542,"o":"m 269 1013 b 309 1029 279 1013 302 1018 b 448 1176 352 1072 422 1145 b 395 1218 443 1191 420 1211 b 388 1216 395 1218 393 1218 b 377 1209 384 1215 379 1211 b 283 1116 354 1191 318 1158 b 190 1206 263 1134 219 1183 b 159 1219 180 1215 169 1219 b 105 1165 140 1219 113 1188 b 269 1013 144 1127 231 1040 m 297 940 b 48 723 118 940 48 831 b 109 563 48 672 63 622 b 212 458 136 530 172 497 b 283 386 237 433 262 409 b 372 222 350 323 372 281 b 231 83 372 133 315 83 b 65 138 165 83 104 105 b 38 58 51 116 38 81 b 55 27 38 47 43 38 b 236 -20 81 4 144 -20 b 502 231 409 -20 502 80 b 420 430 502 313 477 372 b 336 512 395 458 368 483 b 229 618 295 550 259 583 b 177 712 201 650 183 679 b 177 731 177 719 177 725 b 309 844 177 805 229 844 b 418 820 352 844 391 833 b 443 813 427 816 436 813 b 458 818 448 813 454 815 b 479 884 472 840 479 863 b 297 940 466 904 408 940 "},"ª":{"x_min":72.21875,"x_max":368.0625,"ha":407,"o":"m 101 833 b 113 798 102 822 105 806 b 138 805 120 798 129 801 b 230 827 163 815 200 827 b 272 766 268 827 272 805 l 272 718 b 243 719 263 719 254 719 b 219 719 234 719 227 719 b 72 580 166 713 72 687 b 180 465 72 500 125 465 b 244 476 204 465 225 468 b 269 497 254 481 263 491 b 320 465 277 484 300 465 b 366 486 344 466 361 476 b 368 518 366 490 366 505 b 344 558 340 512 344 558 b 345 733 344 604 345 673 l 345 772 b 261 893 345 845 325 888 b 230 893 245 893 244 893 b 101 852 172 891 119 869 b 100 843 101 850 100 845 b 101 833 100 838 100 836 m 269 565 b 268 552 269 559 268 554 b 201 525 255 537 226 525 l 194 525 b 148 587 168 527 148 543 b 226 666 148 641 184 659 b 254 669 234 668 244 669 b 272 668 261 669 266 669 l 272 606 b 269 565 272 587 272 575 "},"Œ":{"x_min":44.4375,"x_max":1044.453125,"ha":1072,"o":"m 743 100 l 743 437 l 947 437 b 1002 537 980 437 994 450 l 743 537 l 743 820 l 905 820 b 997 826 950 820 976 820 b 1027 919 1016 834 1025 854 l 700 919 b 633 900 669 918 644 904 l 633 834 b 400 936 581 902 501 936 b 187 865 313 936 247 913 b 44 454 95 788 44 654 b 388 -16 44 158 138 -16 b 633 95 491 -16 579 19 l 633 30 b 643 2 636 20 640 12 b 879 -4 698 -1 780 -4 b 1000 -1 943 -4 977 -2 b 1044 95 1027 5 1040 25 l 1043 97 b 858 94 988 94 918 94 b 743 100 816 94 770 95 m 177 447 l 177 448 b 400 837 177 720 276 837 b 618 463 522 837 618 748 b 398 81 618 188 526 81 b 177 447 273 81 177 187 "},"˛":{"x_min":80.5625,"x_max":354.171875,"ha":382,"o":"m 170 -152 b 354 29 170 -80 198 -44 l 354 29 b 306 47 338 40 322 54 b 80 -152 136 -19 80 -75 b 265 -294 80 -250 194 -283 b 297 -251 284 -291 297 -263 b 279 -233 297 -240 291 -236 b 170 -152 201 -208 170 -190 "},"ð":{"x_min":44.4375,"x_max":593.0625,"ha":625,"o":"m 518 923 b 458 886 497 913 477 898 b 398 850 437 873 418 861 b 173 956 337 905 230 956 b 138 938 158 956 147 950 l 113 904 l 125 873 b 306 798 191 865 255 837 b 200 738 291 790 200 738 b 180 679 190 725 180 711 b 191 643 180 656 186 647 b 219 644 197 638 204 636 b 300 688 245 658 273 673 b 376 731 323 702 350 718 b 436 623 397 705 416 670 b 341 640 406 634 376 640 b 138 550 298 640 215 629 b 44 302 80 487 44 404 b 119 76 44 213 75 133 b 319 -18 168 15 236 -18 b 513 81 395 -18 466 16 b 593 355 561 148 593 243 b 459 779 593 522 536 680 b 527 822 469 786 527 822 b 556 895 554 838 556 856 b 547 925 556 911 554 920 b 518 923 541 930 531 929 m 173 311 b 222 484 173 380 191 444 b 343 547 255 526 288 547 b 450 502 381 547 420 536 b 465 358 459 462 465 411 b 336 80 465 184 430 80 b 173 311 273 80 173 129 "},"T":{"x_min":18.0625,"x_max":626.390625,"ha":636,"o":"m 587 819 b 616 847 593 820 611 827 b 626 919 622 869 626 894 l 201 919 b 79 920 147 919 109 919 b 45 922 63 920 54 922 b 29 898 40 916 33 909 b 18 838 23 884 18 858 b 19 823 18 833 18 829 b 77 819 37 820 56 819 l 255 819 l 255 55 b 268 -4 255 29 259 11 b 380 12 343 -4 363 -1 b 377 190 379 56 377 111 l 377 819 l 587 819 "},"š":{"x_min":38.890625,"x_max":444.4375,"ha":481,"o":"m 261 669 b 50 498 136 669 50 605 b 111 368 50 451 69 408 l 144 338 b 256 254 176 312 220 280 b 316 163 301 223 316 195 b 236 80 316 118 286 86 b 209 77 227 79 218 77 b 104 100 170 77 133 87 b 66 111 90 106 77 111 b 61 111 63 111 62 111 b 38 41 47 93 38 63 b 212 -18 52 6 126 -18 b 444 176 340 -18 444 47 b 362 327 444 234 422 280 b 222 431 320 362 256 404 b 177 502 188 458 177 479 b 272 575 177 545 215 575 b 340 562 297 575 319 570 b 404 548 363 554 384 552 b 425 611 415 563 425 593 b 301 666 419 627 384 661 b 261 669 290 668 276 669 m 229 748 b 262 756 238 748 250 752 b 290 781 273 762 281 770 b 400 948 330 838 379 904 b 345 983 391 962 368 975 b 319 961 343 983 331 973 b 247 855 295 927 270 895 b 165 968 233 881 194 933 b 137 984 155 979 145 984 b 80 937 118 984 91 956 b 229 748 112 884 195 786 "},"j":{"x_min":-93.0625,"x_max":214.015625,"ha":286,"o":"m 194 655 b 81 622 137 655 95 651 b 84 451 83 576 84 525 l 84 97 b 81 -13 84 56 83 19 b 19 -159 77 -98 65 -140 b -70 -181 -11 -173 -43 -181 b -84 -180 -76 -181 -80 -180 b -93 -220 -90 -190 -93 -208 b -44 -266 -88 -245 -70 -262 b 2 -272 -31 -270 -16 -272 b 34 -270 12 -272 23 -272 b 156 -191 87 -263 129 -236 b 197 -51 180 -154 191 -106 b 205 125 202 2 205 61 l 205 566 b 194 655 205 620 202 640 m 76 891 b 141 811 76 836 93 811 b 213 894 198 811 212 845 b 150 969 215 944 205 969 b 76 891 100 969 76 943 "},"1":{"x_min":93.0625,"x_max":500,"ha":532,"o":"m 408 105 b 415 822 409 333 412 668 b 386 834 408 826 395 831 b 129 752 338 820 225 787 b 93 708 112 737 100 722 b 106 663 94 691 100 676 b 291 709 134 669 243 697 b 283 108 288 491 286 276 b 181 62 240 91 181 84 b 183 -4 181 38 183 12 b 438 -1 262 -4 354 -2 b 484 2 455 0 470 0 b 500 68 498 8 500 20 b 408 105 500 80 443 88 "},"›":{"x_min":55.5625,"x_max":337.5,"ha":385,"o":"m 337 322 b 325 361 337 331 333 345 b 122 650 262 448 154 598 b 62 593 111 645 62 623 b 218 329 62 547 205 345 b 55 70 205 311 55 116 b 113 8 55 33 105 11 b 337 322 151 61 297 259 "},"ı":{"x_min":76.390625,"x_max":201.390625,"ha":281,"o":"m 190 655 b 76 622 133 655 90 651 b 79 479 77 586 79 543 l 79 233 b 77 -4 79 148 77 66 b 184 11 155 -2 175 -2 b 201 84 197 30 201 52 l 201 556 b 190 655 201 615 200 636 "},"ä":{"x_min":33.328125,"x_max":506.9375,"ha":549,"o":"m 79 572 b 100 516 81 555 87 530 b 140 527 111 516 125 520 b 286 563 180 544 237 563 b 352 466 345 563 352 529 l 352 387 b 306 391 340 390 325 391 b 268 390 294 391 281 391 b 33 168 184 381 33 338 b 206 -15 33 40 118 -15 b 308 2 244 -15 277 -12 b 348 34 323 11 340 26 b 431 -15 362 15 398 -15 b 505 16 468 -13 494 1 b 506 68 505 25 505 48 b 468 131 462 59 468 131 l 468 131 b 470 412 468 205 470 316 l 470 475 b 334 668 470 593 437 661 b 286 669 311 669 308 669 b 80 602 193 666 109 630 b 77 587 79 598 77 593 b 79 572 77 581 77 576 m 350 143 b 345 123 348 134 347 126 b 238 80 326 100 280 80 l 229 80 b 155 179 186 83 155 108 b 279 306 155 266 212 295 b 325 309 293 308 308 309 b 352 308 334 309 344 309 l 352 209 b 350 143 352 180 352 159 m 90 861 b 151 786 90 809 106 786 b 219 863 204 786 218 818 b 159 933 220 909 211 933 b 90 861 112 933 90 908 m 308 861 b 369 786 308 809 325 786 b 437 863 422 786 436 818 b 377 933 438 909 429 933 b 308 861 330 933 308 908 "},"<":{"x_min":63.890625,"x_max":537.5,"ha":636,"o":"m 522 762 b 495 786 516 773 508 783 b 466 773 487 787 479 783 b 76 476 447 756 76 476 b 63 430 68 466 63 451 b 86 393 63 413 75 402 l 466 109 b 497 100 477 101 487 98 b 520 119 505 101 513 108 b 536 187 530 134 536 172 b 190 440 536 187 204 430 b 537 702 204 450 537 702 b 522 762 537 715 530 745 "},"£":{"x_min":75,"x_max":646.375,"ha":669,"o":"m 301 452 l 484 472 b 516 565 518 475 520 515 l 280 541 b 270 627 275 569 270 600 b 272 655 270 637 270 645 b 393 844 279 761 319 831 b 458 843 413 848 437 845 b 523 823 486 838 509 830 b 568 811 540 815 556 808 b 587 880 579 826 587 850 b 397 950 575 905 512 950 b 211 858 319 944 256 913 b 137 638 168 805 143 730 b 147 527 137 601 141 555 l 123 525 b 91 515 111 523 100 520 b 84 430 83 505 81 465 l 168 438 b 186 313 177 398 186 354 b 184 287 186 305 186 295 b 76 104 176 202 138 137 l 75 25 b 437 -12 212 0 338 -12 b 581 0 497 -12 541 -8 b 616 18 594 4 606 9 b 643 62 631 27 641 44 b 645 115 645 80 647 102 b 447 102 581 104 488 102 b 248 123 388 102 306 111 b 312 268 284 163 306 212 b 316 320 313 288 316 306 b 301 452 316 361 308 418 "},"t":{"x_min":30.5625,"x_max":413.890625,"ha":440,"o":"m 402 104 b 306 76 391 94 327 75 b 233 208 251 76 238 130 b 231 369 233 254 231 308 b 234 558 231 429 233 494 b 348 559 294 558 312 558 b 381 562 359 559 370 561 b 413 651 401 566 409 581 l 234 651 b 237 830 234 708 236 766 b 133 775 172 826 143 802 l 126 650 b 43 619 105 640 62 636 b 30 570 31 608 30 613 b 113 556 47 562 69 556 l 113 213 b 266 -19 113 101 137 -19 b 383 6 309 -19 356 -9 b 404 34 394 15 401 23 b 405 73 405 47 405 61 b 402 104 405 84 404 95 "},"¬":{"x_min":50,"x_max":630.5625,"ha":692,"o":"m 79 531 b 50 434 56 509 50 476 b 530 434 50 434 515 434 b 530 154 530 419 530 154 b 625 170 568 156 620 158 b 630 220 627 184 630 202 l 630 523 l 586 531 l 79 531 "},"ù":{"x_min":77.78125,"x_max":563.890625,"ha":632,"o":"m 427 134 b 305 86 404 105 354 83 b 200 237 238 86 200 112 l 213 519 b 202 655 213 590 211 623 b 88 636 131 655 102 651 b 91 450 90 584 91 529 l 77 219 b 273 -16 80 72 112 -9 b 359 -1 304 -16 330 -11 b 455 52 390 8 422 25 b 498 11 461 29 473 11 b 508 12 500 11 504 11 b 563 44 538 26 556 36 b 547 148 554 72 547 104 l 547 384 b 550 655 547 491 548 580 l 550 655 b 443 641 475 654 459 655 b 427 576 430 623 427 605 l 427 134 m 275 1012 b 425 833 294 1012 380 897 b 426 822 426 829 426 825 b 383 770 426 800 402 775 b 219 930 344 808 269 880 b 204 947 211 938 206 943 b 275 1012 204 973 244 1012 "},"W":{"x_min":30.5625,"x_max":1050,"ha":1071,"o":"m 508 888 b 487 880 493 886 490 883 l 481 852 b 368 386 441 691 402 530 b 325 151 348 291 334 216 b 272 406 309 234 291 313 b 169 837 230 579 195 720 b 143 920 168 848 152 919 b 75 916 119 920 100 919 b 30 884 48 913 37 901 b 95 612 41 858 65 744 b 231 70 143 426 198 195 b 245 26 237 50 243 34 b 323 -6 245 26 286 -11 b 386 20 351 -4 366 5 b 463 343 393 51 454 302 b 536 676 490 445 519 590 b 606 341 558 565 584 433 b 679 45 634 234 658 133 b 686 20 681 36 683 29 b 762 -9 686 20 726 -15 b 823 18 790 -6 805 5 b 990 654 854 88 933 423 b 1041 852 1011 734 1026 797 b 1050 905 1048 880 1050 897 l 1050 911 b 1013 916 1038 915 1029 916 b 966 920 998 919 981 919 b 940 916 952 920 944 920 b 930 887 936 909 934 900 b 815 409 902 759 866 609 b 761 147 795 313 777 234 b 705 415 744 234 726 318 b 602 838 659 604 623 750 b 580 897 597 865 590 884 b 543 894 568 897 555 895 b 508 888 531 893 520 891 "},"ï":{"x_min":-30.5625,"x_max":316.796875,"ha":281,"o":"m 190 655 b 76 622 133 655 90 651 b 79 479 77 586 79 543 l 79 233 b 77 -4 79 148 77 66 b 184 11 155 -2 175 -2 b 201 84 197 30 201 52 l 201 556 b 190 655 201 615 200 636 m -30 861 b 30 786 -30 809 -13 786 b 98 863 83 786 97 818 b 38 933 100 909 90 933 b -30 861 -8 933 -30 908 m 187 861 b 248 786 187 809 204 786 b 316 863 301 786 315 818 b 256 933 318 909 308 933 b 187 861 209 933 187 908 "},">":{"x_min":91.671875,"x_max":566.671875,"ha":632,"o":"m 106 116 b 133 93 112 105 122 95 b 162 105 141 91 151 95 b 552 402 181 122 552 402 b 566 450 562 412 566 427 b 544 486 566 465 555 476 l 162 769 b 133 779 152 777 143 780 b 108 759 123 777 115 770 b 93 691 100 744 93 706 b 438 440 93 691 426 448 b 91 177 426 430 91 177 b 106 116 93 163 98 134 "},"v":{"x_min":23.609375,"x_max":519.4375,"ha":544,"o":"m 280 138 b 208 438 266 181 237 323 b 159 606 188 502 172 565 b 134 659 154 629 145 648 b 23 625 61 659 31 650 b 90 415 29 604 77 448 b 209 20 144 247 179 131 b 266 -8 215 4 243 -8 b 276 -6 268 -8 272 -8 b 334 16 294 -2 319 1 b 504 568 401 225 452 400 b 519 633 513 595 519 615 b 515 650 519 638 519 644 b 443 655 480 654 459 655 b 412 648 427 655 420 654 b 358 450 397 590 377 522 b 280 138 325 327 294 177 "},"û":{"x_min":77.78125,"x_max":563.890625,"ha":632,"o":"m 427 134 b 305 86 404 105 354 83 b 200 237 238 86 200 112 l 213 519 b 202 655 213 590 211 623 b 88 636 131 655 102 651 b 91 450 90 584 91 529 l 77 219 b 273 -16 80 72 112 -9 b 359 -1 304 -16 330 -11 b 455 52 390 8 422 25 b 498 11 461 29 473 11 b 508 12 500 11 504 11 b 563 44 538 26 556 36 b 547 148 554 72 547 104 l 547 384 b 550 655 547 491 548 580 l 550 655 b 443 641 475 654 459 655 b 427 576 430 623 427 605 l 427 134 m 327 1012 b 294 1004 319 1012 306 1009 b 266 979 284 998 276 990 b 156 812 226 922 177 856 b 211 777 165 798 188 786 b 237 800 215 777 227 787 b 309 905 262 833 286 865 b 393 793 325 879 363 827 b 419 776 402 781 411 776 b 477 823 440 776 465 804 b 327 1012 445 876 362 975 "},"Ò":{"x_min":44.4375,"x_max":750,"ha":794,"o":"m 458 1026 b 495 1081 472 1030 495 1070 b 477 1104 491 1088 486 1095 b 298 1234 426 1154 316 1234 b 276 1209 288 1234 280 1222 b 243 1177 263 1209 248 1191 b 237 1152 238 1169 237 1161 b 252 1140 240 1148 245 1144 b 458 1026 319 1104 425 1040 m 179 450 b 400 81 179 201 270 81 b 618 463 536 81 618 201 b 397 837 618 726 522 837 l 395 837 b 179 450 266 837 179 718 m 401 940 b 750 468 640 940 750 765 b 393 -20 750 158 633 -20 b 44 456 143 -20 44 162 b 401 940 44 775 170 940 "},"&":{"x_min":36.109375,"x_max":768.0625,"ha":806,"o":"m 462 180 b 293 90 409 115 355 90 b 148 233 200 90 148 155 b 252 416 148 309 186 366 b 462 180 304 348 387 256 m 597 598 b 600 566 600 583 600 580 b 512 281 600 501 583 422 b 209 719 397 416 209 613 b 327 830 209 797 262 830 b 444 794 370 830 408 820 b 470 866 459 813 470 855 b 325 923 470 900 412 923 b 102 726 194 923 102 848 b 197 487 102 645 137 566 b 36 231 119 431 36 348 b 291 -9 36 93 123 -9 b 533 106 377 -9 462 22 b 675 -9 644 2 640 -9 b 752 56 701 -9 744 4 b 591 204 729 70 684 115 b 683 500 683 358 683 456 b 681 522 683 508 683 515 l 716 522 b 768 569 755 541 768 550 b 700 611 768 620 730 612 b 597 598 658 608 608 601 "},"˝":{"x_min":104.171875,"x_max":494.09375,"ha":611,"o":"m 298 1001 b 280 1005 295 1004 287 1005 b 193 986 252 1005 213 995 b 104 793 170 943 127 840 b 170 781 115 786 161 775 b 284 940 195 806 243 862 l 290 951 b 298 1001 304 976 311 998 m 487 1001 b 469 1005 484 1004 476 1005 b 381 986 441 1005 402 995 b 294 793 359 943 316 840 b 359 781 304 786 350 775 b 473 940 384 806 431 862 l 480 951 b 487 1001 493 976 500 998 "},"Ð":{"x_min":0,"x_max":684.71875,"ha":732,"o":"m 295 923 b 100 911 225 923 134 915 b 83 816 86 891 83 872 l 83 540 l 33 540 b 0 445 8 540 1 511 l 83 445 l 83 6 b 300 -6 155 -1 219 -6 b 558 84 373 -6 477 9 b 684 494 650 172 684 304 b 295 923 684 743 602 923 m 304 91 b 205 98 266 91 233 94 l 205 445 l 344 445 b 379 540 373 445 377 477 l 205 540 l 205 822 b 276 826 225 825 248 826 b 359 818 306 826 334 823 b 550 494 486 797 550 705 b 304 91 550 159 422 91 "},"I":{"x_min":79.171875,"x_max":206.9375,"ha":288,"o":"m 94 -4 b 206 12 162 -4 195 -1 b 205 143 206 26 205 66 b 204 463 205 231 204 344 b 205 830 204 586 205 720 b 193 922 205 894 204 922 b 79 890 125 922 90 918 b 81 756 80 877 81 831 b 83 461 81 673 83 566 b 81 22 83 291 81 126 b 94 -4 81 2 86 -4 "},"G":{"x_min":44.4375,"x_max":658.328125,"ha":722,"o":"m 455 505 b 538 418 461 419 504 418 l 538 106 b 430 79 523 93 480 79 b 176 454 297 79 176 156 b 447 837 176 719 277 837 b 565 818 488 837 530 830 b 604 805 581 812 594 804 l 609 805 b 629 869 620 820 629 838 b 438 938 616 894 554 938 b 169 841 323 938 231 908 b 44 445 102 770 44 645 b 376 -19 44 104 179 -5 b 422 -20 391 -20 406 -20 b 587 6 490 -20 547 -8 b 658 50 612 18 641 37 l 658 379 b 647 520 658 423 655 491 b 469 516 608 520 509 519 b 455 505 455 516 455 505 "},"`":{"x_min":84.71875,"x_max":305.5625,"ha":446,"o":"m 259 769 b 305 820 276 770 305 801 b 304 827 305 823 305 825 b 155 1011 277 881 172 1009 l 154 1011 b 94 969 133 1011 109 991 b 84 944 87 961 84 952 b 86 936 84 941 84 938 b 259 769 126 894 237 795 "},"·":{"x_min":62.5,"x_max":216.78125,"ha":281,"o":"m 62 354 b 134 270 62 297 80 270 b 216 356 200 270 215 306 b 144 434 218 408 206 434 b 62 354 87 434 62 406 "},"r":{"x_min":65.28125,"x_max":404.171875,"ha":417,"o":"m 311 552 b 336 550 318 552 326 552 b 369 547 347 548 359 547 b 381 548 376 547 376 547 b 404 629 398 573 404 609 b 344 663 400 648 380 659 b 269 652 319 668 295 661 b 175 598 240 643 206 626 b 131 640 168 622 156 640 b 122 638 129 640 126 640 b 65 606 90 625 73 615 b 83 502 75 579 83 547 l 81 268 b 79 -4 81 159 80 70 b 188 9 154 -4 170 -2 b 201 65 200 25 201 41 l 201 508 b 311 552 229 537 265 552 "},"¿":{"x_min":33.328125,"x_max":398.609375,"ha":442,"o":"m 129 150 b 33 -69 77 84 33 22 b 218 -252 33 -175 81 -252 l 218 -252 b 398 -184 286 -252 372 -230 b 363 -109 398 -134 381 -111 b 252 -145 322 -136 286 -145 b 158 -52 198 -145 158 -118 b 236 109 158 6 200 58 b 291 200 256 138 276 168 b 301 336 311 244 312 291 b 237 388 291 372 262 388 b 188 373 218 388 194 383 l 188 370 b 198 297 188 356 198 327 b 129 150 198 258 173 208 m 231 515 b 305 593 281 515 305 541 b 240 673 305 648 288 673 b 168 590 183 673 169 638 b 231 515 166 540 176 515 "},"ý":{"x_min":13.890625,"x_max":516.671875,"ha":543,"o":"m 263 740 b 427 900 302 777 377 850 b 443 916 436 906 441 912 b 434 940 443 925 440 933 b 373 981 420 961 397 981 b 223 802 354 981 266 866 b 220 790 222 798 220 794 b 229 768 220 781 223 775 b 263 740 238 755 250 743 m 136 659 b 29 627 63 659 38 651 b 197 104 87 466 184 145 b 225 40 206 75 212 58 b 231 33 226 37 229 36 b 131 -180 212 -48 169 -161 b 22 -193 88 -198 52 -183 b 13 -230 22 -193 13 -218 b 119 -276 20 -254 54 -276 b 327 -20 180 -276 251 -216 b 509 586 402 187 472 431 b 516 623 513 600 516 612 b 509 652 516 634 513 644 b 448 655 481 654 462 655 b 406 643 426 655 418 652 b 336 341 387 556 359 447 b 288 150 316 256 297 170 b 243 334 283 166 265 251 b 163 604 216 431 177 559 b 136 659 158 626 144 659 "},"x":{"x_min":20.828125,"x_max":569.4375,"ha":585,"o":"m 569 5 l 562 22 b 365 347 498 127 427 243 b 538 613 422 434 486 534 b 554 648 544 625 548 637 b 473 658 526 654 494 658 b 426 634 444 658 438 652 b 376 554 409 606 393 581 b 304 426 351 512 323 461 b 218 576 279 468 244 530 b 161 659 194 615 177 645 l 115 659 b 43 641 90 659 52 647 l 43 641 l 47 629 b 225 337 91 554 173 425 b 33 33 156 229 90 125 l 20 0 b 84 -4 41 -2 65 -4 b 148 16 126 -4 138 -2 b 284 251 206 105 251 190 b 376 87 309 204 347 137 b 426 5 394 56 412 29 b 491 -4 454 -1 476 -4 b 569 5 523 -2 554 0 "},"è":{"x_min":44.4375,"x_max":515.28125,"ha":550,"o":"m 330 84 b 166 286 233 84 168 133 b 229 284 188 284 206 284 b 409 293 294 284 366 287 b 506 325 447 298 493 313 b 515 406 512 347 515 377 b 512 473 515 430 513 452 b 311 669 500 593 436 669 l 311 669 b 44 301 158 669 44 569 b 118 48 44 186 69 98 b 306 -18 172 -5 241 -18 b 412 -4 350 -18 391 -9 b 493 62 451 5 491 34 b 484 118 491 79 488 105 b 330 84 440 94 388 84 m 297 579 b 397 461 359 579 390 538 b 398 430 397 451 398 441 b 391 384 398 412 395 395 b 359 376 383 379 372 377 b 222 372 333 373 276 372 l 169 372 b 284 577 176 506 229 569 b 297 579 288 579 293 579 m 241 1012 b 391 833 261 1012 347 897 b 393 822 393 829 393 825 b 350 770 393 800 369 775 b 186 930 311 808 236 880 b 170 947 177 938 173 943 b 241 1012 170 973 211 1012 "},"º":{"x_min":72.21875,"x_max":406.9375,"ha":446,"o":"m 406 683 b 241 894 406 823 351 894 b 72 677 141 894 72 827 b 238 463 72 527 131 463 b 406 683 336 463 406 537 m 152 681 b 238 837 152 794 193 837 l 241 837 b 327 680 293 837 327 794 b 241 520 327 561 287 520 b 152 681 190 520 152 561 "},"Ø":{"x_min":58.328125,"x_max":763.890625,"ha":824,"o":"m 143 -38 b 198 48 158 -18 179 13 b 408 -20 250 1 322 -20 b 763 468 654 -20 763 159 b 677 791 763 594 737 709 b 738 918 700 833 730 891 b 683 961 737 934 706 961 b 679 961 681 961 680 961 b 661 937 675 958 669 950 b 620 872 648 918 634 895 b 415 940 566 919 497 940 b 186 852 319 940 244 911 b 58 455 102 775 58 643 b 144 122 58 327 81 206 b 75 0 119 80 87 23 b 102 -36 77 -13 90 -26 b 126 -44 109 -41 118 -44 b 143 -38 131 -44 137 -43 m 190 445 b 409 837 190 718 283 837 b 544 784 465 837 511 820 l 231 222 b 190 445 205 277 190 354 m 634 466 b 408 81 634 173 541 81 b 276 136 356 81 312 100 b 590 697 365 277 488 518 b 634 466 618 640 634 561 "},"∞":{"x_min":69.4375,"x_max":988.890625,"ha":1061,"o":"m 751 538 b 627 502 709 538 661 526 b 534 401 601 483 559 434 b 313 558 498 495 409 558 b 69 340 205 558 69 504 b 316 123 69 201 187 123 b 504 202 395 123 456 152 b 572 284 522 220 552 262 b 769 143 604 200 683 143 b 987 309 875 143 977 195 b 988 341 987 319 988 329 b 751 538 988 458 883 538 m 431 268 b 316 222 398 236 372 222 b 176 340 227 222 176 280 b 326 463 176 409 236 463 b 505 362 400 463 463 423 b 431 268 481 326 452 286 m 758 233 b 597 319 694 233 638 263 b 663 402 619 351 644 386 b 758 443 691 430 718 443 b 879 337 836 443 879 390 b 758 233 879 280 834 233 "},"÷":{"x_min":66.671875,"x_max":626.390625,"ha":693,"o":"m 66 320 l 591 320 b 626 415 620 320 626 351 l 100 415 b 66 320 73 415 68 386 m 276 154 b 340 80 276 104 291 80 b 412 156 398 80 411 112 b 348 226 413 202 404 226 b 276 154 298 226 276 201 m 276 580 b 340 506 276 530 291 506 b 412 583 398 506 411 538 b 348 652 413 629 404 652 b 276 580 298 652 276 627 "},"h":{"x_min":76.390625,"x_max":551.390625,"ha":625,"o":"m 76 -4 b 184 9 150 -4 166 -4 b 198 81 195 29 198 52 l 198 504 b 334 566 230 536 279 566 b 425 455 386 566 420 543 b 427 395 427 441 427 422 l 427 59 b 437 -4 427 33 430 12 b 551 12 520 -4 537 -1 b 550 204 550 63 550 127 l 550 408 b 376 669 550 593 511 669 b 286 652 341 669 311 662 b 198 595 258 641 226 622 l 198 890 b 187 981 198 948 195 966 b 76 945 129 981 93 976 b 79 815 77 913 79 873 l 79 284 b 76 -4 79 170 77 76 "},".":{"x_min":51.390625,"x_max":205.671875,"ha":254,"o":"m 51 69 b 123 -13 51 12 69 -13 b 205 72 188 -13 204 22 b 133 150 206 123 195 150 b 51 69 76 150 51 122 "},";":{"x_min":12.5,"x_max":205.671875,"ha":254,"o":"m 51 519 b 125 436 51 462 70 436 b 205 522 187 436 204 472 b 133 600 206 573 195 600 b 51 519 77 600 51 572 m 202 69 b 131 151 205 130 190 151 b 51 100 97 151 63 127 b 70 27 51 83 65 47 b 83 19 72 23 76 20 b 12 -141 79 -40 50 -81 b 90 -144 33 -159 68 -159 b 202 69 150 -100 197 -8 "},"f":{"x_min":22.21875,"x_max":462.65625,"ha":365,"o":"m 458 958 b 354 984 445 972 411 984 b 113 755 256 984 129 940 b 108 651 109 723 108 688 b 54 638 83 645 65 641 b 22 575 31 633 27 626 b 108 558 37 563 63 559 b 109 200 108 433 109 313 b 108 30 109 143 108 86 b 109 -1 108 18 108 6 b 140 -4 119 -2 129 -4 b 219 1 156 -4 197 -2 b 230 27 230 5 230 20 b 227 558 229 176 227 401 b 337 561 270 558 308 558 b 352 566 344 562 350 565 b 383 652 372 573 379 587 b 304 651 365 651 334 651 l 229 651 b 230 741 229 681 229 712 b 355 888 236 861 293 888 b 411 883 373 888 397 887 b 438 877 422 880 434 876 b 455 905 445 884 450 893 b 462 936 459 915 461 925 b 458 958 462 943 463 951 "},"“":{"x_min":45.828125,"x_max":429.171875,"ha":475,"o":"m 398 758 b 388 812 397 776 394 794 b 379 820 386 815 383 818 b 429 1001 380 881 397 945 b 393 1016 419 1012 406 1016 b 343 991 376 1016 358 1008 b 263 800 308 952 268 872 b 262 783 262 794 262 788 b 305 709 262 743 276 713 b 326 708 312 708 319 708 b 398 758 361 708 390 730 m 181 758 b 172 811 179 776 177 794 b 162 819 170 815 166 818 b 212 1001 163 881 181 945 b 176 1016 202 1012 190 1016 b 127 991 158 1016 144 1008 b 47 800 93 952 52 872 b 45 781 45 793 45 787 b 88 709 45 743 59 713 b 109 708 95 708 102 708 b 181 758 144 708 173 730 "},"A":{"x_min":16.671875,"x_max":725,"ha":726,"o":"m 587 18 b 641 -5 609 -1 625 -5 b 719 4 665 -5 702 -1 b 725 13 722 6 725 9 b 723 18 725 13 723 16 b 634 283 700 88 673 173 b 426 911 576 459 488 722 b 400 925 420 918 411 922 b 362 922 391 925 377 925 b 333 916 352 922 341 918 b 319 887 326 916 323 905 b 27 52 256 688 105 284 b 16 4 22 37 18 22 b 100 -5 41 -1 80 -5 b 143 13 130 -5 138 1 b 225 254 163 76 193 162 l 513 254 b 587 18 545 159 562 94 m 286 450 b 372 737 325 566 348 650 b 430 533 384 688 401 625 b 484 352 448 477 465 416 l 255 352 l 286 450 "},"6":{"x_min":40.28125,"x_max":569.4375,"ha":617,"o":"m 40 323 b 300 -18 44 86 144 -18 b 569 301 486 -18 569 115 b 391 555 569 423 519 543 b 369 556 384 556 377 556 b 294 541 341 556 315 551 b 265 472 273 530 265 505 b 265 444 265 462 265 454 b 338 456 284 450 313 456 b 362 454 348 456 355 455 b 459 287 418 438 459 390 b 309 75 459 150 391 75 b 148 344 213 75 148 159 b 161 494 148 397 155 445 b 247 722 175 594 205 669 b 540 831 313 812 418 838 b 547 880 544 847 547 865 b 445 922 537 915 495 922 b 154 770 362 922 247 888 b 43 415 91 690 51 569 b 40 323 40 381 40 351 "},"‘":{"x_min":45.828125,"x_max":212.5,"ha":260,"o":"m 181 758 b 172 811 179 776 177 794 b 162 819 170 815 166 818 b 212 1001 163 881 181 945 b 176 1016 202 1012 190 1016 b 127 991 158 1016 144 1008 b 47 800 93 952 52 872 b 45 781 45 793 45 787 b 88 709 45 743 59 713 b 109 708 95 708 102 708 b 181 758 144 708 173 730 "},"π":{"x_min":48.609375,"x_max":852.78125,"ha":894,"o":"m 851 76 b 840 112 854 101 850 101 b 750 90 813 98 783 90 b 680 170 701 90 680 109 l 680 611 l 813 611 b 843 638 819 612 837 619 b 852 711 848 661 852 686 b 109 712 798 711 140 711 b 76 713 94 712 84 713 b 59 690 70 708 63 701 b 48 630 54 676 48 650 b 50 615 48 625 48 620 b 108 611 68 612 87 611 l 179 611 l 179 58 b 191 -1 179 31 183 13 b 288 15 266 -1 272 1 b 286 193 287 59 286 113 l 286 611 l 573 611 l 573 173 b 731 -11 573 58 606 -11 b 851 76 787 -11 847 34 "},"O":{"x_min":45.828125,"x_max":751.390625,"ha":794,"o":"m 180 450 b 401 81 180 201 272 81 b 619 463 537 81 619 201 b 398 837 619 726 523 837 l 397 837 b 180 450 268 837 180 718 m 402 940 b 751 468 641 940 751 765 b 394 -20 751 158 634 -20 b 45 456 144 -20 45 162 b 402 940 45 775 172 940 "},"n":{"x_min":65.28125,"x_max":555.5625,"ha":628,"o":"m 320 566 b 430 420 404 566 430 527 l 430 52 b 441 -4 430 30 433 11 b 555 12 520 -4 541 0 b 552 211 554 68 552 134 l 552 423 b 355 668 552 580 520 668 b 269 652 325 668 298 662 b 173 598 238 643 206 626 b 130 640 168 622 155 640 b 120 638 129 640 125 640 b 65 606 90 625 72 615 b 81 502 75 579 81 547 l 81 266 b 79 -4 81 159 80 70 l 79 -4 b 186 9 154 -2 169 -4 b 201 75 198 27 201 45 l 201 508 b 320 566 230 540 270 566 "},"3":{"x_min":61.109375,"x_max":555.5625,"ha":617,"o":"m 368 437 b 479 547 420 472 455 506 b 509 658 498 579 509 615 b 301 834 509 733 466 834 b 72 747 183 834 93 791 l 72 740 b 86 679 72 720 76 697 b 94 673 88 675 91 673 b 108 680 98 673 104 677 b 270 729 148 708 206 729 b 379 627 351 729 379 680 b 193 440 379 540 287 476 b 173 387 184 426 179 406 b 179 363 175 379 177 372 b 227 366 194 365 212 366 b 423 245 333 366 412 330 b 426 219 425 237 425 229 b 212 9 429 102 351 9 b 68 44 154 9 101 23 b 66 41 66 45 66 45 b 61 -1 63 29 61 15 b 81 -56 61 -20 63 -41 b 219 -90 101 -73 145 -90 b 555 222 406 -90 555 19 b 368 437 555 341 486 415 "},"9":{"x_min":38.890625,"x_max":562.5,"ha":617,"o":"m 100 -8 b 79 -6 93 -8 86 -8 b 88 -65 79 -25 80 -48 b 158 -91 100 -83 120 -90 l 170 -91 b 408 8 226 -91 327 -65 b 562 452 518 108 561 259 b 309 843 559 727 497 843 b 38 530 131 843 38 716 b 225 275 38 397 102 290 b 248 273 233 275 241 273 b 320 287 279 273 304 280 b 348 351 344 297 348 325 b 347 383 348 362 348 373 b 284 375 330 379 306 375 b 251 377 273 375 262 376 b 150 544 193 391 150 445 b 305 750 150 668 206 750 b 452 466 413 750 452 641 b 444 333 452 420 450 376 b 358 115 431 247 401 173 b 100 -8 294 40 190 -9 "},"l":{"x_min":76.390625,"x_max":237.5,"ha":279,"o":"m 198 130 l 198 852 b 188 981 198 922 197 954 b 76 945 131 981 90 977 b 79 788 77 904 79 856 l 79 84 b 79 70 79 80 79 75 b 112 1 79 43 90 16 b 162 -16 127 -8 145 -16 b 236 15 198 -15 225 -1 b 237 66 236 22 236 47 b 198 130 194 58 198 130 "},"4":{"x_min":26.390625,"x_max":581.9375,"ha":617,"o":"m 354 105 l 354 -11 b 441 -6 386 -11 422 -9 b 477 40 472 -1 477 15 l 477 204 l 495 204 b 523 206 504 204 512 204 b 581 266 558 216 572 238 b 573 298 581 280 577 284 l 573 298 b 477 293 551 298 513 295 b 479 562 479 379 479 477 b 480 830 479 648 480 743 b 427 838 468 833 445 838 b 338 795 401 834 363 819 b 26 290 250 715 69 398 b 63 212 30 263 40 234 b 355 202 123 206 244 202 b 354 105 355 168 354 133 m 361 488 b 355 293 359 429 358 355 b 150 298 277 293 209 294 b 365 662 194 404 280 559 b 361 488 362 604 362 545 "},"p":{"x_min":66.671875,"x_max":593.0625,"ha":636,"o":"m 200 -273 b 202 -213 202 -255 202 -236 l 202 16 b 326 -19 226 -1 272 -19 b 472 31 369 -19 422 -8 b 593 370 543 88 593 195 b 354 670 593 584 486 670 b 270 655 323 670 300 665 b 175 601 238 645 208 629 b 130 643 169 625 155 643 b 120 641 130 643 126 643 b 66 609 91 627 72 618 b 81 505 76 581 81 550 l 81 -143 b 86 -281 81 -212 81 -258 b 200 -273 123 -291 184 -284 m 305 73 b 202 118 262 73 222 93 l 202 515 b 325 569 231 540 276 569 b 462 361 412 569 462 509 b 305 73 462 130 369 73 "},"‡":{"x_min":56.9375,"x_max":644.4375,"ha":694,"o":"m 280 162 b 284 -45 280 100 280 22 b 300 -176 284 -104 294 -155 b 313 -186 304 -181 309 -186 b 401 -104 348 -186 381 -155 b 402 -98 402 -104 402 -102 b 406 162 406 -11 406 80 b 609 163 465 162 562 162 b 620 173 615 163 620 168 b 640 241 629 191 634 212 l 644 256 l 644 261 b 640 270 644 265 644 266 b 630 275 640 272 634 275 l 406 275 l 406 454 b 609 455 465 454 562 455 b 620 465 615 455 620 459 b 640 534 629 484 634 504 l 644 551 l 644 554 b 640 562 644 556 644 561 b 630 568 640 566 634 568 l 406 568 b 411 762 406 631 411 698 b 401 815 411 786 406 801 b 387 820 397 819 391 820 b 313 811 368 820 338 815 b 294 806 305 809 300 808 b 280 795 284 804 280 801 l 280 568 l 90 568 b 76 561 81 568 80 563 b 56 469 66 534 56 504 b 61 459 56 465 56 461 b 70 455 62 455 66 455 l 280 454 l 280 275 l 90 275 b 76 266 81 275 80 270 b 56 175 66 241 56 211 b 61 165 56 172 56 168 b 70 162 62 163 66 162 l 280 162 "},"à":{"x_min":33.328125,"x_max":506.9375,"ha":549,"o":"m 79 572 b 100 516 81 555 87 530 b 140 527 111 516 125 520 b 286 563 180 544 237 563 b 352 466 345 563 352 529 l 352 387 b 306 391 340 390 325 391 b 268 390 294 391 281 391 b 33 168 184 381 33 338 b 206 -15 33 40 118 -15 b 308 2 244 -15 277 -12 b 348 34 323 11 340 26 b 431 -15 362 15 398 -15 b 505 16 468 -13 494 1 b 506 68 505 25 505 48 b 468 131 462 59 468 131 l 468 131 b 470 412 468 205 470 316 l 470 475 b 334 668 470 593 437 661 b 286 669 311 669 308 669 b 80 602 193 666 109 630 b 77 587 79 598 77 593 b 79 572 77 581 77 576 m 350 143 b 345 123 348 134 347 126 b 238 80 326 100 280 80 l 229 80 b 155 179 186 83 155 108 b 279 306 155 266 212 295 b 325 309 293 308 308 309 b 352 308 334 309 344 309 l 352 209 b 350 143 352 180 352 159 m 231 1012 b 381 833 251 1012 337 897 b 383 822 383 829 383 825 b 340 770 383 800 359 775 b 176 930 301 808 226 880 b 161 947 168 938 163 943 b 231 1012 161 973 201 1012 "},"Ü":{"x_min":76.390625,"x_max":687.5,"ha":767,"o":"m 388 79 b 213 279 279 79 234 156 b 204 433 206 325 204 375 l 204 818 b 190 922 204 873 202 900 b 76 904 120 922 87 918 b 79 686 77 847 79 776 l 79 422 b 86 275 79 369 81 320 b 380 -20 105 104 168 -20 b 647 65 488 -20 593 0 b 684 440 672 169 684 290 l 684 661 b 687 922 684 763 686 850 b 581 906 615 922 602 920 b 568 820 573 883 568 856 l 566 440 b 538 109 566 325 558 204 b 388 79 516 95 479 79 m 205 1093 b 266 1018 205 1041 222 1018 b 334 1095 319 1018 333 1050 b 275 1165 336 1141 326 1165 b 205 1093 227 1165 205 1140 m 437 1093 b 498 1018 437 1041 454 1018 b 566 1095 551 1018 565 1050 b 506 1165 568 1141 558 1165 b 437 1093 459 1165 437 1140 "},"ó":{"x_min":41.671875,"x_max":577.78125,"ha":624,"o":"m 577 330 b 313 669 577 554 488 669 b 41 322 154 669 41 561 l 41 322 b 309 -19 41 81 137 -19 b 577 330 463 -19 577 98 m 170 327 b 309 576 170 508 236 576 l 312 576 b 450 326 395 576 450 508 b 312 70 450 134 386 70 b 170 327 230 70 170 136 m 386 1012 b 236 833 366 1012 280 897 b 234 822 234 829 234 825 b 277 770 234 800 258 775 b 441 930 316 808 391 880 b 456 947 450 938 454 943 b 386 1012 456 973 416 1012 "},"√":{"x_min":26.390625,"x_max":748.609375,"ha":743,"o":"m 408 134 b 384 209 400 148 394 188 l 175 679 b 69 743 156 720 113 748 b 26 736 52 740 37 738 b 331 43 120 497 226 261 b 401 -6 344 16 370 -9 l 476 1 l 586 840 l 701 840 b 748 915 730 840 744 858 b 747 936 748 916 748 918 l 747 936 l 495 936 l 412 218 b 408 134 409 194 408 159 "}}}
